<?xml version="1.0" encoding="UTF-8"?>
<svg id="Camada_2" data-name="Camada 2" xmlns="http://www.w3.org/2000/svg" viewBox="0 0 40.63 30.37">
  <g id="Layer_1" data-name="Layer 1">
    <path d="M20.42.49c-1.03,0-1.91.66-2.25,1.58l-12.72,1.58c-1.09.14-1.87,1.13-1.73,2.23.13,1.01.99,1.75,1.98,1.75.08,0,.16,0,.25-.02l.52-.06-3.81,11.28s-.02.06-.02.09H0l.06.72c.18,2.36,2.17,4.2,4.53,4.2h6.89c2.36,0,4.35-1.85,4.53-4.2l.06-.72h-2.46s-.01-.06-.02-.09l-3.94-11.67,8.39-1.04v19.48h-4.37c-1.32,0-2.39,1.07-2.39,2.39s1.07,2.39,2.39,2.39h13.53c1.32,0,2.39-1.07,2.39-2.39s-1.07-2.39-2.39-2.39h-4.37V5.51l8.13-1.01-3.72,11.01s-.02.06-.02.08h-2.64l.06.72c.18,2.36,2.17,4.2,4.53,4.2h6.89c2.36,0,4.35-1.85,4.53-4.21l.06-.72h-2.46s-.01-.06-.02-.08l-3.86-11.43.88-.11c1.09-.14,1.87-1.13,1.73-2.23-.14-1.09-1.14-1.87-2.23-1.73l-12.27,1.53c-.43-.63-1.16-1.05-1.98-1.05ZM14.53,20.26c-.42,1.31-1.66,2.24-3.05,2.24h-6.89c-1.39,0-2.63-.93-3.05-2.24h12.99ZM12.36,18.91H3.89l3.89-11.52.66-.08,3.92,11.61ZM27.19,26.79c.66,0,1.2.54,1.2,1.2s-.54,1.2-1.2,1.2h-13.53c-.66,0-1.2-.54-1.2-1.2s.54-1.2,1.2-1.2h13.53ZM39.09,16.94c-.42,1.31-1.66,2.24-3.05,2.24h-6.89c-1.39,0-2.63-.93-3.05-2.24h12.99ZM36.92,15.6h-8.47l3.8-11.26.83-.1,3.84,11.36ZM34.82,1.2s.07,0,.1,0c.4,0,.74.3.79.7.03.21-.03.42-.16.59-.13.17-.32.28-.53.3l-12.21,1.52-.6.07-.6.07v21.13h-2.39V4.76l-.6.07-.6.07-12.22,1.52c-.21.03-.42-.03-.59-.16-.17-.13-.28-.32-.3-.53-.03-.21.03-.42.16-.59.13-.17.32-.28.53-.3l12.42-1.55.6-.07.6-.07v-.26c0-.12.02-.24.06-.35.09-.28.27-.52.52-.67.18-.11.39-.18.62-.18.12,0,.24.02.35.06.28.09.52.27.67.52.1.17.17.37.17.58l.59-.07.6-.08,12.02-1.5Z"/>
  </g>
</svg>