<?xml version="1.0" encoding="UTF-8"?>
<svg id="Camada_2" data-name="Camada 2" xmlns="http://www.w3.org/2000/svg" viewBox="0 0 39.48 36.25">
  <g id="Layer_1" data-name="Layer 1">
    <g>
      <path d="M29.64,2.16c-.08-.03-.14-.09-.17-.17-.02-.04-.02-.08-.02-.12,0,.04,0,.08.02.12.03.08.09.14.17.17l3.79,1.53s.08.02.12.02c-.04,0-.08,0-.12-.02l-3.79-1.53Z"/>
      <path d="M.72,13.95h.54v-2.93c0-.68.55-1.23,1.23-1.23h23.73l.13-.31.38-.95H2.49c-1.37,0-2.49,1.12-2.49,2.49v3.87s0,0,0,0H0c0-.12.04-.24.1-.33,0-.34.29-.61.63-.61Z"/>
      <path d="M36.99,8.22h-5.06l-.51,1.26h5.56c.68,0,1.23.55,1.23,1.23v3.24h.63c.35,0,.63.28.63.63h0s0,0,0,0v-3.87c0-1.37-1.12-2.49-2.49-2.49Z"/>
      <path d="M38.85,13.95h-9.23l1.81-4.47.51-1.26,1.9-4.7c-.03.08-.09.14-.17.17-.04.02-.08.02-.12.02s-.08,0-.12-.02l-3.79-1.53c-.08-.03-.14-.09-.17-.17-.02-.04-.02-.08-.02-.12,0-.04,0-.08.02-.12l-2.62,6.47-.13.31-.38.95-.13.31-1.68,4.15H.72c-.34,0-.62.27-.63.61,0,0,0,.01,0,.02H.09v19.19c0,1.37,1.12,2.49,2.49,2.49h34.41c1.37,0,2.48-1.11,2.48-2.49V14.58h0c0-.35-.28-.63-.63-.63ZM38.22,33.76c0,.68-.55,1.23-1.23,1.23H2.58c-.68,0-1.23-.55-1.23-1.23V15.2h22.67l-2.66,6.57s-.01.05-.02.07l.58.24h0s.01-.05.02-.07L29.93,2.28l3.2,1.3-7.98,19.73s-.02.04-.04.06l.59.24h0s.02-.04.03-.06l3.37-8.33h9.11v18.56Z"/>
      <path d="M2.33,11.36c0,.19.16.35.35.35h2.71c.19,0,.35-.16.35-.35s-.16-.35-.35-.35h-2.71c-.19,0-.35.16-.35.35Z"/>
      <path d="M34.45,11.71h2.71c.19,0,.35-.16.35-.35s-.16-.35-.35-.35h-2.71c-.19,0-.35.16-.35.35s.16.35.35.35Z"/>
      <path d="M29.44,1.87s0,.08.02.12c.03.08.09.14.17.17l3.79,1.53s.08.02.12.02.08,0,.12-.02c.08-.03.14-.09.17-.17h0s.23-.57.23-.57c.41-1.03-.23-2.26-1.43-2.75-.57-.23-1.19-.26-1.74-.09-.57.18-.99.56-1.2,1.07l-.23.57s0,0,0,0h0s-.02.08-.02.12ZM30.28,1.42c.13-.33.42-.58.81-.71.41-.13.87-.1,1.31.07.88.36,1.37,1.22,1.08,1.93l-.11.28-3.21-1.3.11-.28Z"/>
      <path d="M20.91,26.83l.19.09s.09.04.13.06l-.19,1.64c-.01.1.12.15.18.07l.92-1.3s.07.03.1.05l.21.09,3.35-3.88-.09-.04h0l-.59-.24-3.19-1.29h0l-.58-.24-.15-.06-.29,5.05ZM22.28,26.76c-.25-.11-.5-.22-.72-.32l.21-3.75,2.97,1.2-2.47,2.87Z"/>
    </g>
  </g>
</svg>