<?xml version="1.0" encoding="UTF-8"?>
<svg id="Camada_2" data-name="Camada 2" xmlns="http://www.w3.org/2000/svg" viewBox="0 0 25.84 27.61">
  <g id="Layer_1" data-name="Layer 1">
    <g>
      <path d="M2.71,11.94c-.92.92-1.42,2.13-1.42,3.43,0,2.67,2.17,4.84,4.85,4.84h0c1.29,0,2.51-.5,3.42-1.42.49-.49.86-1.07,1.1-1.69h4.52c.7,1.82,2.46,3.11,4.52,3.11h0c1.29,0,2.51-.5,3.42-1.42.92-.92,1.42-2.13,1.42-3.43,0-2.67-2.17-4.84-4.85-4.84-.78,0-1.53.19-2.21.54-.28-.43-.62-.84-1.02-1.21-.24-.22-.59-.23-.84-.04-.03.02-2.69,2.01-5.24.19l-1.34-2.08c.89,1.09,2.24,1.78,3.75,1.78h0c1.29,0,2.51-.51,3.43-1.42.92-.92,1.42-2.13,1.42-3.43,0-2.67-2.18-4.85-4.85-4.85-1.29,0-2.51.51-3.43,1.42-.92.92-1.42,2.14-1.42,3.43,0,.78.19,1.52.52,2.18l-1.62-2.5c-.49-.76-1.52-.98-2.28-.49-.76.49-.98,1.52-.49,2.28l2.75,4.26c-.23-.03-.46-.06-.7-.06-1.29,0-2.51.51-3.43,1.42ZM10.3,2.35c.67-.67,1.56-1.04,2.5-1.04,1.95,0,3.54,1.59,3.54,3.54,0,.94-.37,1.83-1.04,2.5-.67.67-1.56,1.04-2.5,1.04-1.95,0-3.54-1.59-3.54-3.54,0-.94.37-1.83,1.04-2.5ZM17.2,12.86c.67-.67,1.56-1.04,2.5-1.04,1.95,0,3.54,1.59,3.54,3.54,0,.94-.37,1.83-1.04,2.5-.67.67-1.56,1.04-2.5,1.04h0c-1.95,0-3.54-1.59-3.54-3.54,0-.94.37-1.83,1.04-2.5ZM4.97,5.74c-.08-.13-.11-.29-.08-.44.03-.15.12-.28.25-.37.26-.17.64-.09.81.17l3.16,4.89h0l.81,1.26.05.05c.22.14.45.26.68.36.19.08.39.15.59.21,2.02.59,3.87-.25,4.67-.71.18.2.34.42.48.65-.05.04-.1.08-.14.13-.92.92-1.42,2.13-1.42,3.43,0,.14,0,.28.02.42h-3.92c.01-.14.02-.28.02-.42,0-1.84-1.03-3.44-2.54-4.26l-.07-.11-3.4-5.26ZM9.68,15.37c0,.94-.37,1.83-1.04,2.5-.67.67-1.56,1.04-2.5,1.04h0c-1.95,0-3.54-1.59-3.54-3.54,0-.94.37-1.83,1.04-2.5.67-.67,1.56-1.04,2.5-1.04,1.95,0,3.54,1.59,3.54,3.54Z"/>
      <path d="M.19,27.42c.12.12.29.19.46.19h10.97c.35,0,.64-.28.65-.63,0-.17.11-4.26-2.46-6.61-.23-.21-.59-.23-.84-.04-.12.09-2.88,2.14-5.49,0-.25-.2-.6-.19-.84.01C2.54,20.44.06,22.64,0,26.95c0,.17.07.34.19.47ZM3.14,21.7c2.3,1.52,4.77.8,6.14-.01,1.29,1.46,1.59,3.57,1.66,4.62H1.34c.2-2.42,1.25-3.94,1.81-4.6Z"/>
      <path d="M22.54,20.33c-.12.09-2.88,2.14-5.49,0-.25-.2-.6-.19-.84.01-.1.09-2.58,2.29-2.64,6.6,0,.17.07.34.19.47.12.12.29.19.46.19h10.97c.35,0,.64-.28.65-.63,0-.17.11-4.26-2.46-6.61-.23-.21-.59-.23-.84-.04ZM24.51,26.3h-9.61c.2-2.42,1.25-3.94,1.81-4.6,2.3,1.52,4.77.8,6.14-.01,1.29,1.46,1.59,3.57,1.66,4.62Z"/>
    </g>
  </g>
</svg>