<?xml version="1.0" encoding="UTF-8"?>
<svg id="Camada_2" data-name="Camada 2" xmlns="http://www.w3.org/2000/svg" viewBox="0 0 4.41 5.3">
  <g id="Layer_1" data-name="Layer 1">
    <g>
      <path d="M2.44,4.5c-.17,0-.34-.04-.48-.12-.03-.02-.04-.04-.04-.07-.02-.36.2-.74.57-.97.37-.23.81-.25,1.12-.06.03.02.04.04.04.07.02.36-.2.74-.57.97-.2.12-.43.19-.64.19ZM2.1,4.24c.25.13.6.1.89-.09.3-.18.48-.47.48-.76-.25-.13-.6-.1-.89.09-.3.18-.48.47-.48.76Z"/>
      <path d="M1.58,4.5c-.21,0-.44-.06-.64-.19-.37-.23-.59-.61-.57-.97,0-.03.02-.06.04-.07.31-.19.75-.16,1.12.06.37.23.59.61.57.97,0,.03-.02.06-.04.07-.14.08-.3.12-.48.12ZM.55,3.4c0,.28.19.58.48.76.3.18.64.21.89.09,0-.28-.19-.58-.48-.76-.3-.18-.64-.21-.89-.09Z"/>
      <path d="M2.01,5.3s-.09-.04-.09-.09v-1.92s.04-.09.09-.09.09.04.09.09v1.92s-.04.09-.09.09Z"/>
      <path d="M4.29,1.85H.27s-.05-.01-.07-.03c-.13-.15-.2-.34-.2-.54C0,.83.36.47.81.47c.15-.29.44-.47.76-.47.4,0,.74.28.82.66.08.01.16.05.23.09.11-.1.26-.16.42-.16.21,0,.41.11.52.29.05,0,.1-.01.14-.01.39,0,.7.32.7.7,0,.07-.01.14-.03.21-.01.04-.05.06-.09.06ZM.31,1.67h3.91s0-.06,0-.09c0-.29-.24-.52-.52-.52-.05,0-.11,0-.16.03-.04.01-.09,0-.11-.05-.07-.15-.23-.25-.4-.25-.13,0-.26.06-.34.16-.02.02-.04.03-.06.03-.03,0-.05,0-.07-.03-.07-.07-.16-.1-.25-.11-.04,0-.08-.04-.08-.08-.04-.33-.33-.58-.66-.58-.27,0-.51.16-.62.41-.01.04-.05.06-.09.06-.02,0-.03,0-.05,0C.46.65.18.93.18,1.28c0,.14.05.28.13.39Z"/>
      <path d="M.58,2.32s-.02,0-.03,0c-.05-.02-.07-.07-.05-.12l.05-.13s.07-.07.12-.05c.05.02.07.07.05.12l-.05.13s-.05.06-.08.06Z"/>
      <path d="M.41,2.74s-.02,0-.03,0c-.05-.02-.07-.07-.05-.12l.06-.14s.07-.07.12-.05c.05.02.07.07.05.12l-.06.14s-.05.06-.08.06Z"/>
      <path d="M.24,3.14s-.02,0-.03,0c-.05-.02-.07-.07-.05-.12l.05-.13s.07-.07.12-.05c.05.02.07.07.05.12l-.06.13s-.05.06-.08.06Z"/>
      <path d="M1.22,2.32s-.02,0-.03,0c-.05-.02-.07-.07-.05-.12l.05-.13s.07-.07.12-.05c.05.02.07.07.05.12l-.05.13s-.05.06-.08.06Z"/>
      <path d="M.95,2.96s-.02,0-.03,0c-.05-.02-.07-.07-.05-.12l.05-.13s.07-.07.12-.05c.05.02.07.07.05.12l-.05.13s-.05.06-.08.06Z"/>
      <path d="M1.86,2.32s-.02,0-.03,0c-.05-.02-.07-.07-.05-.12l.05-.13s.07-.07.12-.05c.05.02.07.07.05.12l-.05.13s-.05.06-.08.06Z"/>
      <path d="M1.69,2.74s-.02,0-.03,0c-.05-.02-.07-.07-.05-.12l.06-.14s.07-.07.12-.05c.05.02.07.07.05.12l-.06.14s-.05.06-.08.06Z"/>
      <path d="M1.52,3.14s-.02,0-.03,0c-.05-.02-.07-.07-.05-.12l.06-.13s.07-.07.12-.05c.05.02.07.07.05.12l-.06.13s-.05.06-.08.06Z"/>
      <path d="M2.5,2.32s-.02,0-.03,0c-.05-.02-.07-.07-.05-.12l.05-.13s.07-.07.12-.05c.05.02.07.07.05.12l-.05.13s-.05.06-.08.06Z"/>
      <path d="M2.19,3.06s-.02,0-.03,0c-.05-.02-.07-.07-.05-.12l.06-.13s.07-.07.12-.05c.05.02.07.07.05.12l-.05.13s-.05.06-.08.06Z"/>
      <path d="M3.14,2.32s-.02,0-.03,0c-.05-.02-.07-.07-.05-.12l.05-.13s.07-.07.12-.05c.05.02.07.07.05.12l-.05.13s-.05.06-.08.06Z"/>
      <path d="M2.89,2.93s-.02,0-.03,0c-.05-.02-.07-.07-.05-.12l.05-.13s.07-.07.12-.05c.05.02.07.07.05.12l-.05.13s-.05.06-.08.06Z"/>
      <path d="M3.78,2.32s-.02,0-.03,0c-.05-.02-.07-.07-.05-.12l.05-.13s.07-.07.12-.05c.05.02.07.07.05.12l-.06.13s-.05.06-.08.06Z"/>
      <path d="M3.5,2.98s-.02,0-.03,0c-.05-.02-.07-.07-.05-.12l.06-.13s.07-.07.12-.05c.05.02.07.07.05.12l-.06.13s-.05.06-.08.06Z"/>
      <path d="M4.22,5.3H.44s-.09-.04-.09-.09.04-.09.09-.09h3.78s.09.04.09.09-.04.09-.09.09Z"/>
      <path d="M2.61,5.3s-.09-.04-.09-.09v-.16s.04-.09.09-.09.09.04.09.09v.16s-.04.09-.09.09Z"/>
      <path d="M3,5.3s-.09-.04-.09-.09v-.16s.04-.09.09-.09.09.04.09.09v.16s-.04.09-.09.09Z"/>
      <path d="M3.39,5.3s-.09-.04-.09-.09v-.16s.04-.09.09-.09.09.04.09.09v.16s-.04.09-.09.09Z"/>
      <path d="M3.79,5.3s-.09-.04-.09-.09v-.16s.04-.09.09-.09.09.04.09.09v.16s-.04.09-.09.09Z"/>
    </g>
  </g>
</svg>