<?xml version="1.0" encoding="UTF-8"?>
<svg id="Camada_2" xmlns="http://www.w3.org/2000/svg" version="1.1" viewBox="0 0 38.3 25.4">
  <!-- Generator: Adobe Illustrator 29.8.1, SVG Export Plug-In . SVG Version: 2.1.1 Build 2)  -->
  <g id="Layer_1">
    <g>
      <path d="M11.1,24.8c0,.2,0,.4.2.5s.3.2.5.2h14.7c.4,0,.6-.3.7-.6,0,0,0-1-.2-2.3h10.7c.4,0,.7-.3.7-.6,0-.2.1-5.6-3.2-8.7-.2-.2-.6-.2-.8,0,0,0-4,3-7.6,0-.2-.2-.6-.2-.9,0,0,0-1.1,1-2.1,2.9-.2,0-.5,0-.7,0-.2.1-4,3-7.6,0-.2-.1-.4-.2-.6-.1-.5-1-1.1-2-2-2.8-.2-.2-.6-.2-.9,0,0,0-4,3-7.6,0-.2-.2-.6-.2-.9,0-.1.1-3.4,3-3.4,8.7,0,.2,0,.4.2.5.1.1.3.2.5.2h10.7c-.1.7-.2,1.5-.2,2.3ZM26.3,14.5c3.5,2.4,7,.7,8.3,0,2,2.1,2.3,5.3,2.4,6.7h-10.3c-.3-1.4-.9-2.9-2-4.2.5-1.2,1.2-2,1.6-2.5ZM15.1,17.5c3.5,2.4,7,.7,8.3,0,2,2.1,2.4,5.3,2.4,6.7h-13.3c.2-3.6,1.9-5.8,2.6-6.6h0ZM1.4,21.1c.2-3.6,1.9-5.8,2.6-6.6,3.5,2.4,7,.7,8.3,0,.7.7,1.2,1.6,1.5,2.5-.7.8-1.6,2.2-2.1,4.2H1.4Z"/>
      <path d="M1.7,6.3c0,3.5,2.8,6.3,6.3,6.3h0c1.7,0,3.2-.6,4.4-1.8s.3-.3.5-.5c.5,3,3.1,5.3,6.2,5.3h0c1.7,0,3.2-.6,4.4-1.8s1.6-2.2,1.8-3.6c1.1,1.5,3,2.5,5,2.5h0c1.7,0,3.2-.6,4.4-1.8,1.2-1.2,1.8-2.8,1.8-4.4C36.6,2.8,33.8,0,30.3,0s-3.2.7-4.4,1.8c-1,1-1.6,2.3-1.8,3.6-1.1-1.5-3-2.5-5-2.5s-3.2.7-4.4,1.8c-.2.2-.3.3-.5.5C13.7,2.3,11.1,0,8,0s-3.2.7-4.4,1.8c-1.2,1.2-1.8,2.8-1.8,4.4ZM26.8,2.8c.9-.9,2.2-1.5,3.5-1.5,2.7,0,4.9,2.2,4.9,4.9s-.5,2.6-1.5,3.5c-.9.9-2.2,1.4-3.5,1.4h0c-2.7,0-5-2.2-5-4.9,0-1.3.5-2.6,1.5-3.5h0ZM15.6,5.8c.9-.9,2.2-1.4,3.5-1.4,2.7,0,5,2.2,5,4.9s-.5,2.6-1.5,3.5c-.9.9-2.2,1.4-3.5,1.4h0c-2.7,0-4.9-2.2-5-4.9,0-1.3.5-2.6,1.4-3.5h0ZM8,1.3c2.7,0,4.9,2.2,5,4.9,0,1.3-.5,2.6-1.4,3.5s-2.2,1.4-3.5,1.4h0c-2.7,0-4.9-2.2-5-4.9,0-1.3.5-2.6,1.4-3.5.9-.9,2.2-1.5,3.5-1.4Z"/>
    </g>
  </g>
</svg>