<?xml version="1.0" encoding="UTF-8"?>
<svg id="Camada_2" data-name="Camada 2" xmlns="http://www.w3.org/2000/svg" viewBox="0 0 38.34 25.44">
  <defs>
    <style>
      .cls-1 {
        fill: #272525;
      }
    </style>
  </defs>
  <g id="Layer_1" data-name="Layer 1">
    <g>
      <path class="cls-1" d="M11.1,24.77c0,.18.07.35.19.48.12.13.3.2.47.2h14.69c.36,0,.65-.29.66-.64,0-.09.03-1.03-.17-2.32h10.73c.36,0,.65-.29.66-.64,0-.23.14-5.61-3.23-8.7-.24-.22-.6-.23-.85-.04-.04.03-3.96,2.98-7.62,0-.25-.2-.61-.2-.85.01-.08.07-1.15,1.02-2.08,2.87-.22-.09-.47-.07-.67.08-.16.12-3.98,2.96-7.62,0-.18-.14-.41-.18-.62-.12-.47-1.01-1.12-1.99-2.02-2.82-.24-.22-.6-.23-.85-.04-.04.03-3.96,2.98-7.61,0-.25-.2-.61-.2-.86.01C3.33,13.23.08,16.12,0,21.8c0,.18.07.35.19.48.12.13.29.2.47.2h10.66c-.13.71-.21,1.47-.22,2.29ZM26.29,14.5c3.47,2.42,7.01.74,8.28-.03,1.97,2.12,2.35,5.32,2.42,6.68h-10.31c-.34-1.36-.93-2.88-1.97-4.17.55-1.21,1.19-2.04,1.58-2.48ZM15.07,17.46c3.47,2.42,7.01.74,8.29-.03,1.97,2.12,2.35,5.32,2.42,6.68h-13.32c.23-3.57,1.87-5.8,2.62-6.65ZM1.35,21.15c.23-3.57,1.87-5.81,2.62-6.65,3.47,2.42,7.01.74,8.28-.03.68.73,1.17,1.59,1.52,2.46-.66.82-1.58,2.22-2.15,4.22H1.35Z"/>
      <path class="cls-1" d="M1.73,6.28c0,3.46,2.82,6.28,6.28,6.28h0c1.68,0,3.25-.65,4.44-1.84.16-.16.32-.34.46-.52.46,3.01,3.06,5.32,6.2,5.32h0c1.68,0,3.25-.65,4.44-1.84.99-.99,1.6-2.25,1.78-3.62,1.15,1.51,2.96,2.49,5,2.49h0c1.68,0,3.25-.65,4.44-1.84,1.19-1.19,1.84-2.76,1.84-4.44,0-3.46-2.82-6.28-6.28-6.28-1.67,0-3.25.66-4.44,1.84-.99.99-1.6,2.25-1.78,3.62-1.15-1.51-2.96-2.49-5-2.49-1.68,0-3.25.66-4.44,1.84-.16.16-.32.34-.46.52-.46-3.01-3.06-5.32-6.2-5.32-1.68,0-3.25.66-4.44,1.84-1.19,1.19-1.84,2.76-1.84,4.44ZM26.83,2.78c.94-.94,2.18-1.45,3.5-1.45,2.73,0,4.95,2.22,4.95,4.95,0,1.32-.52,2.57-1.45,3.5-.94.94-2.18,1.45-3.5,1.45h0c-2.73,0-4.95-2.22-4.96-4.95,0-1.32.52-2.57,1.45-3.5ZM15.61,5.75c.94-.94,2.18-1.45,3.5-1.45,2.73,0,4.95,2.22,4.95,4.95,0,1.32-.52,2.56-1.45,3.5-.94.94-2.18,1.45-3.5,1.45h0c-2.73,0-4.95-2.22-4.96-4.95,0-1.32.52-2.57,1.45-3.5ZM8.01,1.33c2.73,0,4.95,2.22,4.96,4.95,0,1.32-.52,2.57-1.45,3.5-.94.94-2.18,1.45-3.5,1.45h0c-2.73,0-4.95-2.22-4.96-4.95,0-1.32.52-2.57,1.45-3.5.94-.94,2.18-1.45,3.5-1.45Z"/>
    </g>
  </g>
</svg>