<?xml version="1.0" encoding="UTF-8"?>
<svg id="Camada_2" data-name="Camada 2" xmlns="http://www.w3.org/2000/svg" viewBox="0 0 44.13 29.59">
  <g id="Layer_1" data-name="Layer 1">
    <g>
      <path d="M22.48,10.32v.02h5.64c.31,0,.56-.25.56-.56V.56c0-.31-.25-.56-.56-.56h-12.1c-.31,0-.56.25-.56.56v9.22c0,.31.25.56.56.56h5.64v-.02h.82ZM16.58,9.22V1.13h10.98v8.09h-10.98Z"/>
      <path d="M13.23,29.03v-9.22c0-.31-.25-.56-.56-.56H.56c-.31,0-.56.25-.56.56v9.22c0,.31.25.56.56.56h12.1c.31,0,.56-.25.56-.56ZM12.1,28.46H1.13v-8.09h10.97v8.09Z"/>
      <path d="M16.01,19.25c-.31,0-.56.25-.56.56v9.22c0,.31.25.56.56.56h12.1c.31,0,.56-.25.56-.56v-9.22c0-.31-.25-.56-.56-.56h-12.1ZM27.55,28.46h-10.97v-8.09h10.97v8.09Z"/>
      <path d="M31.47,19.25c-.31,0-.56.25-.56.56v9.22c0,.31.25.56.56.56h12.1c.31,0,.56-.25.56-.56v-9.22c0-.31-.25-.56-.56-.56h-12.1ZM43,28.46h-10.97v-8.09h10.97v8.09Z"/>
      <polygon points="6.94 18.46 7.76 18.46 7.76 15.39 21.65 15.39 21.65 18.46 22.48 18.46 22.48 15.39 36.37 15.39 36.37 18.46 37.19 18.46 37.19 14.57 22.48 14.57 22.48 10.34 22.48 10.32 21.65 10.32 21.65 10.34 21.65 14.57 6.94 14.57 6.94 18.46"/>
    </g>
  </g>
</svg>