<?xml version="1.0" encoding="UTF-8"?>
<svg id="Camada_2" data-name="Camada 2" xmlns="http://www.w3.org/2000/svg" viewBox="0 0 39.51 38.48">
  <g id="Layer_1" data-name="Layer 1">
    <path d="M15.54,38.48c8.57,0,15.55-6.97,15.55-15.55,0-4.05-1.56-7.75-4.11-10.52l2.93-2.93c.1.15.27.25.46.27l6.12.67s.05,0,.07,0c.33,0,.61-.25.65-.58.04-.36-.22-.68-.58-.72l-5.74-.63,1.68-1.68s.05.01.08.02l6.12.67s.05,0,.07,0c.33,0,.61-.25.65-.58.04-.36-.22-.68-.58-.72l-5.17-.57,3.14-3.14c.25-.25.25-.67,0-.92-.25-.25-.67-.25-.92,0l-3.22,3.22-1.7-4.39c-.13-.34-.51-.5-.84-.37-.34.13-.5.51-.37.84l1.89,4.87s.02.03.03.05l-1.39,1.39-1.7-4.54c-.13-.34-.5-.51-.84-.38-.34.13-.51.5-.38.84l1.89,5.02s.02.04.03.06l-3.29,3.29c-2.77-2.55-6.46-4.11-10.52-4.11C6.97,7.38,0,14.36,0,22.93s6.97,15.55,15.54,15.55ZM15.54,8.69c3.69,0,7.06,1.41,9.59,3.73l-3.08,3.08c-1.74-1.53-4.02-2.46-6.52-2.46-5.46,0-9.9,4.44-9.9,9.9s4.44,9.9,9.9,9.9,9.9-4.44,9.9-9.9c0-2.49-.93-4.77-2.46-6.52l3.08-3.08c2.31,2.53,3.73,5.9,3.73,9.59,0,7.85-6.39,14.24-14.24,14.24S1.3,30.78,1.3,22.93s6.39-14.24,14.24-14.24ZM15.08,23.39c.13.13.29.19.46.19s.33-.06.46-.19l2.01-2.01c.28.45.45.98.45,1.55,0,1.61-1.31,2.92-2.92,2.92s-2.92-1.31-2.92-2.92,1.31-2.92,2.92-2.92c.57,0,1.1.17,1.55.45l-2.01,2.01c-.25.25-.25.67,0,.92ZM18.03,19.52c-.7-.51-1.55-.82-2.48-.82-2.33,0-4.22,1.89-4.22,4.22s1.89,4.22,4.22,4.22,4.22-1.89,4.22-4.22c0-.93-.31-1.79-.82-2.48l3.11-3.11c1.29,1.5,2.08,3.46,2.08,5.59,0,4.74-3.85,8.59-8.59,8.59s-8.59-3.85-8.59-8.59,3.85-8.59,8.59-8.59c2.13,0,4.09.78,5.59,2.08l-3.11,3.11Z"/>
  </g>
</svg>