<?xml version="1.0" encoding="UTF-8"?>
<svg id="Camada_2" xmlns="http://www.w3.org/2000/svg" version="1.1" viewBox="0 0 37.2 34.1">
  <!-- Generator: Adobe Illustrator 29.8.1, SVG Export Plug-In . SVG Version: 2.1.1 Build 2)  -->
  <g id="Layer_1">
    <g>
      <path d="M18.9,11.2c-.6,0-1.3-.2-1.8-.5l-.3-.2-.5,1.5h.2c.5.5,1.2.7,2,.8v1.4h1.5v-1.5c1.3-.3,2.2-1.3,2.2-2.6s-1.2-2.4-2.3-2.8c-1.3-.5-1.5-.8-1.5-1.3s.3-.8,1.1-.8,1.3.3,1.6.4l.3.2.6-1.5h-.2c-.5-.4-1-.6-1.6-.6v-1.3h-1.5v1.4c-1.3.3-2.1,1.2-2.1,2.5s1.2,2.2,2.5,2.7c1,.4,1.3.8,1.3,1.3s-.5,1-1.3,1h0ZM19.1,8.3c-1.5-.6-2-1.2-2-2.1s.7-1.7,1.8-1.9h.3v-1.4h.2v1.3h.3c.5,0,1,.1,1.4.3v.3c-.5-.2-1-.3-1.7-.3-1.2,0-1.8.8-1.8,1.5s.8,1.4,1.9,1.9c1.4.6,1.9,1.2,1.9,2.2s-.7,1.8-1.9,2h-.3v1.4h-.2v-1.4h-.3c-.6,0-1.3-.2-1.7-.4v-.3c.7.3,1.3.4,1.9.4,1.1,0,2-.7,2-1.7s-.9-1.6-1.8-1.9h0Z"/>
      <path d="M26.2,12c.7-1.2,1-2.5,1-4C27.2,3.6,23.6,0,19.2,0s-8.1,3.6-8.1,8.1.4,2.8,1.1,4H2.5l-2.5,6.7,1.2,15.4h35l1-15.4-3.1-6.7h-7.9,0ZM12,8.1c0-3.9,3.2-7.1,7.1-7.1s3,.5,4.2,1.4c0,0,.2.1.3.2.7.5,1.2,1.2,1.7,1.9.6,1.1,1,2.3,1,3.6s0,.5,0,.7c0,.7-.2,1.4-.5,2-.5,1.3-1.5,2.4-2.6,3.1-1.1.8-2.5,1.2-4,1.2-3.9,0-7.1-3.2-7.1-7.1h0ZM20.9,15.9h9.6v1.6H6.7v-1.6h10.8s0,0,.1,0c.5.1,1,.2,1.6.2h0c.6,0,1.2,0,1.7-.2h0ZM34.9,32.7H2.5l-.9-12.3h34.2l-.8,12.3h0ZM35.8,19.2v.2H1.4v-.5s2-5.5,2-5.5h9.7c.1.1.2.2.4.4.6.6,1.3,1.1,2.1,1.5H6v3h25.2v-2.9h-8.4c.9-.5,1.8-1.1,2.4-1.9h8l2.6,5.6s0,.3,0,.3Z"/>
    </g>
  </g>
</svg>