<?xml version="1.0" encoding="UTF-8"?>
<svg id="Camada_2" data-name="Camada 2" xmlns="http://www.w3.org/2000/svg" viewBox="0 0 5.43 4.17">
  <g id="Layer_1" data-name="Layer 1">
    <g>
      <path d="M5.34,2.34H.09s-.09-.04-.09-.09v-1.04s.04-.09.09-.09h5.25s.09.04.09.09v1.04s-.04.09-.09.09ZM.18,2.17h5.07v-.86H.18v.86Z"/>
      <path d="M5.34,3.78H.09s-.09-.04-.09-.09v-1.04s.04-.09.09-.09h5.25s.09.04.09.09v1.04s-.04.09-.09.09ZM.18,3.6h5.07v-.86H.18v.86Z"/>
      <path d="M4.98,2.74H.44s-.09-.04-.09-.09v-.4s.04-.09.09-.09h4.54s.09.04.09.09v.4s-.04.09-.09.09ZM.53,2.56h4.36v-.22H.53v.22Z"/>
      <path d="M4.98,4.17H.44s-.09-.04-.09-.09v-.4s.04-.09.09-.09h4.54s.09.04.09.09v.4s-.04.09-.09.09ZM.53,4h4.36v-.22H.53v.22Z"/>
      <path d="M5.34,4.17H.09s-.09-.04-.09-.09.04-.09.09-.09h5.25s.09.04.09.09-.04.09-.09.09Z"/>
      <path d="M.44,1.3s-.01,0-.02,0c-.05,0-.08-.05-.07-.1l.07-.37s.02-.05.05-.06l.59-.29L1.78.01s.07-.02.1,0l.4.3.8-.13s.07,0,.09.04l.19.26.78.67s.04.09,0,.12c-.03.04-.09.04-.13,0l-.79-.68s0,0-.01-.02l-.16-.22-.78.13s-.05,0-.07-.02l-.38-.29-.67.43s0,0,0,0l-.55.28-.06.33s-.05.07-.09.07Z"/>
      <path d="M4.98,1.3s-.08-.03-.09-.07l-.07-.26-.29-.06s-.04-.02-.05-.04l-.2-.28-.61-.07-.37.1s-.1-.01-.11-.06c-.01-.05.01-.1.06-.11l.39-.11s.02,0,.03,0l.66.08s.05.02.06.04l.2.29.31.07s.06.03.07.06l.08.32s-.02.1-.06.11c0,0-.01,0-.02,0Z"/>
      <path d="M1.8.86s-.07-.02-.08-.05c-.02-.04,0-.1.04-.12l.32-.15.09-.18s.08-.06.12-.04c.04.02.06.08.04.12l-.11.21s-.02.03-.04.04l-.35.16s-.02,0-.04,0Z"/>
      <path d="M4.35,1.82H1.08s-.09-.04-.09-.09.04-.09.09-.09h3.27s.09.04.09.09-.04.09-.09.09Z"/>
      <path d="M4.35,3.26H1.08s-.09-.04-.09-.09.04-.09.09-.09h3.27s.09.04.09.09-.04.09-.09.09Z"/>
    </g>
  </g>
</svg>