<?xml version="1.0" encoding="UTF-8"?>
<svg id="Camada_2" data-name="Camada 2" xmlns="http://www.w3.org/2000/svg" viewBox="0 0 32.42 32.39">
  <g id="Layer_1" data-name="Layer 1">
    <path d="M15.34,32.39h1.56c8.71-.36,15.52-7.46,15.52-16.19S25.61.37,16.9,0h-1.54s0,0-.01,0C6.73.47,0,7.56,0,16.2s6.73,15.73,15.34,16.19ZM5.55,26.68c1.03-.75,2.14-1.39,3.32-1.91,1.11,2.33,2.66,4.39,4.62,6.13-2.99-.56-5.78-2.04-7.93-4.22ZM15.58,31c-2.37-1.78-4.28-4.09-5.55-6.7,1.78-.65,3.64-1.02,5.55-1.1v7.8ZM15.58,21.95c-2.08.09-4.12.49-6.06,1.21-.74-1.84-1.17-3.79-1.29-5.8h7.35s0,4.59,0,4.59ZM15.58,16.1h-7.39c0-2.05.35-4.07,1.01-5.99,2.04.8,4.18,1.26,6.38,1.35v4.64ZM18.72,30.94c2.04-1.81,3.64-3.96,4.77-6.39,1.26.51,2.46,1.16,3.57,1.94-2.23,2.36-5.16,3.92-8.34,4.46ZM27.89,25.53c-1.21-.86-2.53-1.58-3.91-2.14.74-1.92,1.18-3.95,1.29-6.04h5.85c-.23,3-1.34,5.83-3.23,8.19ZM28.36,7.48c1.82,2.53,2.79,5.5,2.81,8.61h-5.86c-.01-2.13-.36-4.23-1.03-6.23,1.44-.62,2.81-1.42,4.07-2.38ZM27.58,6.49c-1.16.87-2.41,1.61-3.74,2.19-1.12-2.75-2.88-5.23-5.13-7.23,3.45.58,6.57,2.35,8.86,5.04ZM16.84,1.52c2.61,2.01,4.63,4.63,5.85,7.62-1.88.67-3.84,1.04-5.85,1.08V1.52ZM16.84,11.48c2.15-.04,4.26-.43,6.28-1.16.61,1.86.93,3.8.94,5.78h-7.22s0-4.62,0-4.62ZM16.84,17.35h7.18c-.12,1.94-.52,3.82-1.22,5.6-1.92-.64-3.92-.98-5.96-1.02v-4.58ZM16.84,23.18c1.87.04,3.71.35,5.47.93-1.23,2.62-3.12,4.95-5.47,6.76v-7.69ZM15.58,1.39v8.81c-2.04-.09-4.03-.52-5.93-1.27,1.26-2.97,3.3-5.57,5.93-7.54ZM13.49,1.49c-2.16,1.93-3.87,4.31-4.98,6.94-1.23-.59-2.4-1.31-3.48-2.16C7.25,3.77,10.23,2.1,13.49,1.49ZM4.24,7.25c1.18.93,2.46,1.72,3.81,2.36-.73,2.08-1.1,4.26-1.11,6.5H1.25c.02-3.22,1.05-6.27,2.98-8.85ZM1.3,17.36h5.68c.12,2.17.59,4.28,1.39,6.26-1.3.57-2.53,1.29-3.66,2.12-2-2.4-3.17-5.29-3.41-8.38Z"/>
  </g>
</svg>