<?xml version="1.0" encoding="UTF-8"?>
<svg id="Camada_2" data-name="Camada 2" xmlns="http://www.w3.org/2000/svg" viewBox="0 0 26.15 35.47">
  <g id="Layer_1" data-name="Layer 1">
    <g>
      <path d="M0,3.91v27.66c0,2.15,1.83,3.91,4.08,3.91h17.99c2.25,0,4.08-1.61,4.08-3.6V6.85c0-1.12-.58-2.16-1.57-2.84v-.11c0-2.15-1.83-3.91-4.08-3.91H4.08C1.83,0,0,1.75,0,3.91ZM1.3,3.91c0-1.43,1.25-2.6,2.77-2.6h16.42c1.53,0,2.77,1.17,2.77,2.6v.47c0,.24.13.46.34.57.77.43,1.23,1.14,1.23,1.9v25.02c0,1.26-1.24,2.29-2.77,2.29H4.08c-1.53,0-2.77-1.17-2.77-2.6V3.91Z"/>
      <path d="M4.48,5.86c.12.1.26.15.41.15h3.2v10.91c0,.26.16.5.4.6.08.04.17.05.26.05.16,0,.33-.06.45-.18l2.7-2.58,2.83,2.59c.19.17.47.22.7.12.24-.1.39-.34.39-.6V6h6.34c.26,0,.5-.16.6-.39.05-.12.49-1.2-.02-2.16-.22-.41-.7-.95-1.74-1.16-.04,0-.08-.01-.13-.01H4.89s-.08,0-.11,0c-.13.02-1.32.26-1.57,1.22-.28,1.08.89,2.04,1.27,2.36ZM4.96,3.58h15.86c.39.09.66.25.78.47.1.2.11.44.08.65h-6.5c-.36,0-.65.29-.65.65v10.09l-2.19-2c-.12-.11-.28-.17-.44-.17s-.33.06-.45.18l-2.04,1.95V5.35c0-.36-.29-.65-.65-.65h-3.62c-.68-.6-.67-.87-.67-.87.03-.07.26-.2.49-.25Z"/>
      <path d="M10.57,10.84l-.15.89c-.02.12.03.25.13.32.06.04.12.06.19.06.05,0,.1-.01.15-.04l.8-.42.8.42c.11.06.24.05.34-.02.1-.07.15-.2.13-.32l-.15-.89.65-.63c.09-.09.12-.22.08-.33-.04-.12-.14-.2-.26-.22l-.9-.13-.4-.81c-.06-.11-.17-.18-.29-.18s-.24.07-.29.18l-.4.81-.9.13c-.12.02-.22.1-.26.22-.04.12,0,.25.08.33l.65.63ZM11.26,10.14c.11-.02.2-.08.25-.18l.18-.37.18.37c.05.1.14.16.25.18l.41.06-.3.29c-.08.08-.11.18-.09.29l.07.41-.37-.19s-.1-.04-.15-.04-.1.01-.15.04l-.37.19.07-.41c.02-.11-.02-.21-.09-.29l-.3-.29.41-.06Z"/>
    </g>
  </g>
</svg>