<?xml version="1.0" encoding="UTF-8"?>
<svg id="Camada_2" data-name="Camada 2" xmlns="http://www.w3.org/2000/svg" viewBox="0 0 125.68 125.67">
  <defs>
    <style>
      .cls-1 {
        fill: #182945;
      }
    </style>
  </defs>
  <g id="Camada_1-2" data-name="Camada 1">
    <g>
      <path class="cls-1" d="M62.83,125.67c-8.47,0-16.92-1.74-24.93-5.2-15.4-6.66-27.27-18.92-33.45-34.52-6.18-15.6-5.91-32.66.76-48.06C11.87,22.5,24.13,10.62,39.73,4.44c15.6-6.17,32.66-5.91,48.06.76,15.4,6.66,27.27,18.92,33.45,34.52,6.18,15.6,5.91,32.66-.76,48.06-6.66,15.39-18.92,27.27-34.52,33.45-7.49,2.96-15.31,4.44-23.13,4.44ZM62.86,5.02c-7.19,0-14.39,1.36-21.28,4.09-14.35,5.68-25.63,16.61-31.76,30.78-6.13,14.17-6.38,29.87-.69,44.22,5.68,14.35,16.61,25.63,30.78,31.76,14.17,6.13,29.87,6.38,44.22.69,14.35-5.68,25.63-16.61,31.76-30.78,6.13-14.17,6.38-29.87.69-44.22-5.68-14.35-16.61-25.63-30.78-31.76-7.36-3.19-15.15-4.78-22.94-4.78Z"/>
      <path class="cls-1" d="M52.48,123.41c-5.08,0-10.09-.98-14.83-3.03l1.99-4.6c21.57,9.33,49.41-6.87,62.07-36.13,12.66-29.25,5.41-60.65-16.15-69.98l1.99-4.6c24.1,10.43,32.52,44.78,18.76,76.57-11.05,25.53-33.09,41.77-53.83,41.77Z"/>
      <path class="cls-1" d="M38.36,120.68c-13.86-6-13.76-36.02.23-68.34,6.52-15.07,15.06-28.24,24.04-37.09,9.53-9.39,18.63-12.89,25.62-9.87l-1.99,4.6c-4.92-2.13-12.25,1.09-20.11,8.84-8.53,8.4-16.69,21.01-22.96,35.5-13.73,31.73-12.55,57.55-2.84,61.75l-1.99,4.6h0Z"/>
      <path class="cls-1" d="M96.61,98.12c-.52,0-1.04,0-1.57-.02-12.59-.3-27.82-4.05-42.89-10.57C19.85,73.56-.76,51.76,5.23,37.9c3.02-6.98,12.04-10.66,25.41-10.34,12.59.3,27.82,4.05,42.89,10.57,32.31,13.98,52.92,35.78,46.92,49.63-2.9,6.71-11.34,10.36-23.84,10.36ZM29.07,32.56c-10.23,0-17.21,2.64-19.24,7.34-4.2,9.71,12.6,29.32,44.31,43.04,14.48,6.27,29.05,9.88,41.01,10.16,11.02.26,18.57-2.41,20.69-7.32,4.2-9.71-12.6-29.32-44.31-43.04-14.48-6.27-29.05-9.88-41.01-10.16-.49,0-.98-.02-1.46-.02h0Z"/>
      <path class="cls-1" d="M116.84,49.67c-7.25-12.66-19.56-23.23-34.66-29.77l-.66-.29,1.41,6.16c12.85,6.15,23.28,15.44,29.55,26.39,6.58,11.49,7.78,23.43,3.37,33.61l-1,2.3,4.6,1.99,1-2.3c5.05-11.67,3.76-25.2-3.62-38.1h.01Z"/>
      <path class="cls-1" d="M42.68,99.87C15.59,86.85.92,60.48,9.83,39.89l1-2.3-4.6-1.99-1,2.3c-10.31,23.83,6.86,54.27,38.28,67.87l.57.24-1.4-6.14Z"/>
    </g>
  </g>
</svg>