<?xml version="1.0" encoding="UTF-8"?>
<svg id="Camada_2" data-name="Camada 2" xmlns="http://www.w3.org/2000/svg" viewBox="0 0 31.96 33.29">
  <g id="Layer_1" data-name="Layer 1">
    <g>
      <path d="M15.14,14.85c.21-.09.35-.29.35-.52V.56c0-.31-.25-.56-.56-.56-3.74,0-7.28,1.43-9.96,4.04-.11.1-.17.25-.17.4,0,.15.05.29.16.4l9.57,9.88c.11.11.25.17.4.17.07,0,.14-.01.21-.04ZM14.37,12.93L6.16,4.46c2.28-2.03,5.16-3.2,8.2-3.32v11.79Z"/>
      <path d="M14.88,17.27c.02-.16-.04-.33-.16-.44L5.16,6.94c-.1-.11-.25-.17-.4-.17-.15,0-.29.05-.4.16C1.55,9.65,0,13.31,0,17.21c0,2.99.91,5.85,2.64,8.28.11.15.28.24.46.24.11,0,.23-.03.33-.1l11.22-7.95c.13-.1.22-.24.24-.41ZM3.24,24.38c-1.39-2.14-2.12-4.6-2.12-7.16,0-3.41,1.28-6.61,3.62-9.08l8.71,9-10.22,7.24Z"/>
      <path d="M31.83,16.77c-.03-.23-.07-.47-.11-.7h0c-.09-.51-.21-1-.35-1.46-.06-.21-.12-.41-.19-.61-.15-.44-.32-.87-.51-1.3-.08-.19-.17-.37-.26-.55-.2-.39-.42-.78-.65-1.16-.1-.16-.21-.33-.32-.49-.27-.39-.56-.78-.86-1.15-.12-.15-.25-.29-.37-.43-.28-.31-.58-.62-.9-.91-.14-.13-.28-.26-.42-.38-.32-.28-.66-.55-1.01-.8-.16-.11-.32-.22-.48-.33-.38-.25-.76-.48-1.13-.68-.17-.09-.35-.19-.53-.27-.46-.22-.93-.42-1.41-.6-.2-.07-.4-.14-.6-.2-.47-.15-.95-.27-1.44-.37-.23-.05-.45-.09-.68-.12-.53-.08-1.09-.13-1.65-.16-.19,0-.39-.01-.59-.01-.46,0-.84.38-.84.84v13.33l-10.87,7.7c-.18.13-.31.32-.34.55-.04.22.02.44.14.62l.05.07c.24.33.5.66.8,1.01.12.14.25.29.38.42.28.3.59.6.91.9.14.13.29.25.43.37.4.33.78.62,1.14.87.13.09.27.18.41.26l.08.05c.38.23.77.45,1.16.65.18.09.36.18.54.26.4.18.82.35,1.3.51.2.07.4.13.61.19.51.15.98.26,1.46.35.23.04.46.08.7.11.63.09,1.27.13,1.87.13,0,0,.04,0,.05,0,.26,0,.53,0,.78-.02.69-.04,1.39-.12,2.07-.26.34-.07.69-.15,1.06-.25,1.06-.3,2.08-.71,3.04-1.23.96-.52,1.86-1.16,2.69-1.89.47-.41.9-.85,1.3-1.3.73-.83,1.37-1.74,1.89-2.69.52-.95.93-1.97,1.23-3.04.1-.37.19-.72.25-1.06.13-.68.22-1.38.26-2.07.01-.26.02-.52.02-.78v-.04c0-.61-.05-1.24-.13-1.88ZM30.82,19.41c-.04.64-.12,1.28-.24,1.91-.06.31-.14.63-.23.98-.27.98-.65,1.92-1.13,2.8-.48.88-1.06,1.72-1.74,2.49-.37.42-.78.83-1.21,1.2-.77.68-1.6,1.26-2.48,1.74-.88.48-1.82.86-2.8,1.13-.34.1-.66.17-.98.24-.63.13-1.27.21-1.91.24-.24.01-.48.02-.72.02,0,0-.03,0-.04,0-.57,0-1.15-.04-1.74-.12-.21-.03-.43-.06-.64-.1-.44-.08-.88-.19-1.35-.32-.19-.06-.38-.12-.56-.18-.44-.15-.84-.3-1.2-.47-.17-.08-.34-.16-.5-.24-.36-.18-.72-.38-1.07-.6l-.08-.05c-.12-.08-.25-.15-.37-.24-.34-.23-.68-.49-1.06-.8-.13-.11-.27-.23-.4-.35-.3-.27-.58-.55-.84-.83-.12-.13-.24-.26-.35-.39-.23-.27-.43-.52-.62-.77l10.87-7.7c.15-.11.24-.28.24-.46V5.22c.08,0,.17,0,.25,0,.52.02,1.03.07,1.52.14.21.03.42.07.63.11.45.09.9.21,1.33.34.19.06.37.12.55.19.44.16.88.35,1.3.55.16.08.33.16.49.25.34.18.69.4,1.04.63.15.1.29.2.44.3.32.23.63.48.93.74.13.11.26.23.39.35.29.27.57.55.83.84.12.13.23.26.34.4.28.34.55.69.8,1.06.1.15.2.3.29.45.22.35.42.71.6,1.07.08.17.16.33.24.5.18.39.34.79.47,1.2.06.19.12.37.18.57.13.43.23.88.32,1.35.04.21.07.43.1.64.08.59.12,1.18.12,1.73v.04c0,.24,0,.49-.02.72Z"/>
    </g>
  </g>
</svg>