<?xml version="1.0" encoding="UTF-8"?>
<svg id="Camada_2" data-name="Camada 2" xmlns="http://www.w3.org/2000/svg" viewBox="0 0 5.18 3.06">
  <g id="Layer_1" data-name="Layer 1">
    <g>
      <path d="M1.75,3.06c-.24,0-.44-.2-.44-.44s.2-.44.44-.44.44.2.44.44-.2.44-.44.44ZM1.75,2.3c-.18,0-.32.14-.32.32s.14.32.32.32.32-.14.32-.32-.14-.32-.32-.32Z"/>
      <path d="M1.75,2.3s-.06-.03-.06-.06v-.39s.03-.06.06-.06.06.03.06.06v.39s-.03.06-.06.06Z"/>
      <path d="M1.96,2.36s-.03,0-.04-.02c-.02-.02-.02-.06,0-.08l.45-.45s.06-.02.08,0c.02.02.02.06,0,.08l-.45.45s-.03.02-.04.02Z"/>
      <path d="M4.44,3.06c-.24,0-.44-.2-.44-.44s.2-.44.44-.44.44.2.44.44-.2.44-.44.44ZM4.44,2.3c-.18,0-.32.14-.32.32s.14.32.32.32.32-.14.32-.32-.14-.32-.32-.32Z"/>
      <path d="M4.44,2.3s-.06-.03-.06-.06v-.39s.03-.06.06-.06.06.03.06.06v.39s-.03.06-.06.06Z"/>
      <path d="M4.24,2.36s-.03,0-.04-.02l-.45-.45s-.02-.06,0-.08c.02-.02.06-.02.08,0l.45.45s.02.06,0,.08c-.01.01-.03.02-.04.02Z"/>
      <path d="M5.12,1.68H1.07s-.06-.03-.06-.06V.06s.03-.06.06-.06h4.05s.06.03.06.06v1.56s-.03.06-.06.06ZM1.13,1.56h3.94V.12H1.13v1.44Z"/>
      <path d="M5.12.76H1.07s-.06-.03-.06-.06V.06s.03-.06.06-.06h4.05s.06.03.06.06v.64s-.03.06-.06.06ZM1.13.64h3.94V.12H1.13v.53Z"/>
      <path d="M4.06.76h-1.93s-.06-.03-.06-.06V.06s.03-.06.06-.06h1.93s.06.03.06.06v.64s-.03.06-.06.06ZM2.19.64h1.81V.12h-1.81v.53Z"/>
      <path d="M1.07,1.52H.06s-.06-.03-.06-.06.03-.06.06-.06h1.01s.06.03.06.06-.03.06-.06.06Z"/>
      <path d="M4.95,1.91H1.24s-.06-.03-.06-.06v-.23s.03-.06.06-.06h3.71s.06.03.06.06v.23s-.03.06-.06.06ZM1.3,1.79h3.6v-.12H1.3v.12Z"/>
      <path d="M1.54,1.3h-.12s-.06-.03-.06-.06.03-.06.06-.06h.12s.06.03.06.06-.03.06-.06.06Z"/>
      <path d="M4.32,1.3h-.22s-.06-.03-.06-.06.03-.06.06-.06h.22s.06.03.06.06-.03.06-.06.06ZM3.76,1.3h-.22s-.06-.03-.06-.06.03-.06.06-.06h.22s.06.03.06.06-.03.06-.06.06ZM3.21,1.3h-.22s-.06-.03-.06-.06.03-.06.06-.06h.22s.06.03.06.06-.03.06-.06.06ZM2.65,1.3h-.22s-.06-.03-.06-.06.03-.06.06-.06h.22s.06.03.06.06-.03.06-.06.06ZM2.1,1.3h-.22s-.06-.03-.06-.06.03-.06.06-.06h.22s.06.03.06.06-.03.06-.06.06Z"/>
      <path d="M4.77,1.3h-.12s-.06-.03-.06-.06.03-.06.06-.06h.12s.06.03.06.06-.03.06-.06.06Z"/>
      <path d="M.06,1.68s-.06-.03-.06-.06v-.35s.03-.06.06-.06.06.03.06.06v.35s-.03.06-.06.06Z"/>
      <path d="M5.12,3.06H.2s-.06-.03-.06-.06.03-.06.06-.06h4.92s.06.03.06.06-.03.06-.06.06Z"/>
    </g>
  </g>
</svg>