<?xml version="1.0" encoding="UTF-8"?>
<svg id="Camada_2" data-name="Camada 2" xmlns="http://www.w3.org/2000/svg" viewBox="0 0 38.19 31.43">
  <g id="Layer_1" data-name="Layer 1">
    <path d="M28.75,0l-3.25,3.25c-.16-.02-.33-.04-.49-.05-1.17-.47-3.24-.8-5.67,1.07l-.06.05-.8.8c-3-2.04-5.39-.78-6.06-.34l-2.99-2.99L0,11.22l3.58,3.58c.03,1.6.6,3.25,1.71,4.91.46.68.99,1.31,1.57,1.9.74.75,1.48,1.48,2.23,2.23-.81,1.17-.46,2.14.38,3.02.87.91,1.67,1.01,2.85.67,0,0,.02,0,.03.01.85,1.27,1.63,1.88,2.47,1.95.35.34.7.68,1.05,1.02,1.04,1,2.63,1.23,3.88.51.54-.31.63-.57.91-1.01,2.12,1.78,3.54,1.81,5.21-.69,0,0,.02-.01.03-.01,1.18.34,1.98.24,2.85-.67.89-.92,1.22-1.95.23-3.22,0,0-.26-.34-.25-.34.71.02,1.27-.43,1.57-.83.82-1.06.77-2.18-.11-3.28.39-.39.78-.77,1.16-1.16.58-.58,1.11-1.21,1.57-1.9,1.11-1.66,1.68-3.3,1.71-4.91l3.58-3.58L28.75,0ZM7.42,20.23c-1.08-1.15-1.9-2.41-2.25-3.85-.08-.32-.13-.65-.17-.99-.03-.28-.03-.56-.03-.84l-3.63-3.63,7.8-7.8,2.5,2.5.17.16v.03s1.2.1,1.2.1l.08-.2c.48-.32,2.45-1.42,5.09.59l3.49,3.51c.17.18.27.41.27.66,0,.25-.1.49-.27.66l-.23.23c-.37.36-.96.36-1.32,0l-3.57-3.59-.87.61.97,1.13.42.42c-.41.41-.82.82-1.23,1.23-.1.1-.16.21-.19.33-.02.02-.04.04-.06.06-2.4,2.4-4.81,4.8-7.2,7.21-.48.48-.79.97-.95,1.46ZM19,29.96c-.28.26-.56.42-.97.39-.57-.04-.97-.48-1.24-.75-.17-.17-.34-.34-.5-.5.4-.21.81-.51,1.26-.89.28.44.37.7.91,1.01.24.14.5.24.76.31-.04.18-.12.33-.22.43ZM24.14,29.48c-.54.63-1.15.68-1.93-.04-.12-.11-.24-.23-.36-.34.17-.11.33-.24.49-.39.45-.43.89-.87,1.34-1.31.05.05.09.1.14.14.74.74.83,1.33.33,1.93ZM27.87,27.53c-.54.74-1.37.75-2.11.02-.37-.37-.73-.74-1.1-1.1.61-.59,1.22-1.18,1.82-1.78.34.34.68.68,1.03,1.03.66.66.77,1.29.37,1.84ZM29.39,23.16c-.28.69-1.09,1.01-1.74.66-.06-.04-.12-.08-.18-.12.58-.58,1.16-1.16,1.75-1.75.25.33.38.7.18,1.21ZM33.21,12.77c0,.29,0,.57-.03.84-.03.34-.09.67-.17.99-.36,1.44-1.18,2.71-2.27,3.86-1.48,1.56-3.03,3.05-4.55,4.57-1.6,1.6-3.19,3.2-4.79,4.78-.28.27-.67.71-1.24.75-.41.03-.7-.13-.97-.39-.25-.23-.33-.83-.23-1.2.1-.4.46-.76.77-1.08.73-.75,1.47-1.48,2.2-2.21.36-.36.71-.72,1.07-1.08.37-.39,1.47-1.21.86-1.78-.56-.53-1.37.49-1.71.83-.36.36-.72.72-1.08,1.07-1.69,1.65-3.35,3.32-5.08,4.93-.78.73-1.4.67-1.93.04-.51-.6-.41-1.19.33-1.93,1.91-1.92,3.83-3.83,5.74-5.75.27-.27.5-.44.55-.86.04-.3-.07-.57-.39-.62-.53-.08-.76.12-1.09.46-2.25,2.25-4.5,4.51-6.76,6.76-.74.74-1.57.72-2.11-.02-.41-.55-.29-1.18.37-1.84,2.29-2.3,4.58-4.59,6.87-6.87.37-.37.67-.79.21-1.22-.44-.41-.82-.05-1.15.29-1.76,1.77-3.53,3.53-5.3,5.29-.24.23-.48.47-.77.63-.65.36-1.47.03-1.74-.66-.28-.7.08-1.15.53-1.6,2.93-2.92,5.86-5.84,8.76-8.78l1.2,1.2c.41.41.95.62,1.48.62s1.07-.2,1.48-.61l.23-.23c.4-.39.61-.92.62-1.48,0-.53-.2-1.02-.54-1.4l-2.66-2.69h0l-.52-.52.71-.71c1.1-.84,2.08-1.13,2.89-1.17,1.48-.13,2.79.64,2.79.64l.79-.79,2.5-2.5,7.8,7.8-3.63,3.63Z"/>
  </g>
</svg>