<?xml version="1.0" encoding="UTF-8"?>
<svg id="Camada_2" data-name="Camada 2" xmlns="http://www.w3.org/2000/svg" viewBox="0 0 30.14 28.05">
  <g id="Layer_1" data-name="Layer 1">
    <g>
      <path d="M4.44,23.29c.07.48.48.82.95.82.04,0,.08,0,.13,0,5.67-.74,9.9-2.29,12.94-4.72,1.5-1.2,2.72-2.61,3.74-4.3.82-1.37,1.5-2.91,2.07-4.71l1.81.26c.36.05.71-.1.92-.39.21-.29.25-.67.09-.99l-3.05-6.33h0c-.13-.27-.38-.47-.68-.53-.29-.06-.6.02-.83.21l-5.35,4.61c-.28.24-.4.62-.31.97.09.36.37.63.74.7l1.6.34c-.45,2.28-1.36,4.34-2.72,6.14-2.17,2.86-5.13,4.56-7.23,5.49-1.2.53-2.25.86-2.92,1.05-.37.11-.67.18-.85.22-.1.02-.17.04-.22.05h-.05c-.54.11-.88.59-.8,1.11ZM8.09,22.54c.5-.18,1.06-.39,1.65-.65,2.22-.98,5.36-2.79,7.67-5.84,1.58-2.08,2.6-4.49,3.03-7.17.05-.3-.15-.58-.44-.64l-1.82-.39,4.95-4.26,2.83,5.87-1.99-.28s-.05,0-.08,0c-.25,0-.47.16-.54.4-.57,1.91-1.25,3.52-2.1,4.92-.95,1.58-2.09,2.89-3.48,4-2.38,1.9-5.56,3.23-9.67,4.04Z"/>
      <path d="M30.14,27.27c0-.43-.35-.78-.78-.78H1.56V.78c0-.43-.35-.78-.78-.78S0,.35,0,.78h0v26.49c0,.21.08.41.23.55.15.15.35.23.55.23h28.57c.43,0,.78-.35.78-.78Z"/>
    </g>
  </g>
</svg>