<?xml version="1.0" encoding="UTF-8"?>
<svg id="Camada_2" data-name="Camada 2" xmlns="http://www.w3.org/2000/svg" viewBox="0 0 35.19 28.49">
  <g id="Layer_1" data-name="Layer 1">
    <g>
      <path d="M19.5,0H.56c-.3,0-.56.28-.56.61v23.1c0,.33.26.61.56.61h13.99v3.52c0,.42.49.81.84.53.39-.32.79-.64,1.18-.96.29-.24.58-.47.87-.71.07-.06.18-.13.28-.19.06.04.11.08.15.12.25.25.56.46.84.69.43.35.86.71,1.29,1.06.24.2.48.12.63-.06.12-.1.21-.25.21-.47v-3.52h13.79c.16,0,.29-.06.38-.16,0,0,.01-.01.02-.02,0,0,0,0,0-.01.09-.1.15-.24.15-.42V.61c0-.33-.26-.61-.56-.61h-15.13ZM14.55,23.1H1.12V1.22h13.43v21.88ZM19.72,26.63c-.58-.48-1.16-.95-1.74-1.42-.14-.12-.42-.12-.56,0-.58.48-1.17.95-1.75,1.43V1.22h4.05v25.41ZM20.84,1.22h13.23v21.88h-13.23V1.22Z"/>
      <path d="M3.66,6.97h7.89c.48,0,.48-.82,0-.82H3.66c-.48,0-.48.82,0,.82Z"/>
      <path d="M3.66,10.39h7.89c.48,0,.48-.82,0-.82H3.66c-.48,0-.48.82,0,.82Z"/>
      <path d="M3.66,13.82h7.89c.48,0,.48-.81,0-.81H3.66c-.48,0-.48.81,0,.81Z"/>
      <path d="M3.66,17.25h7.89c.48,0,.48-.81,0-.81H3.66c-.48,0-.48.81,0,.81Z"/>
      <path d="M31.57,6.15h-7.89c-.48,0-.48.82,0,.82h7.89c.48,0,.48-.82,0-.82Z"/>
      <path d="M31.57,9.58h-7.89c-.48,0-.48.82,0,.82h7.89c.48,0,.48-.82,0-.82Z"/>
      <path d="M31.57,13.01h-7.89c-.48,0-.48.81,0,.81h7.89c.48,0,.48-.81,0-.81Z"/>
      <path d="M31.57,16.43h-7.89c-.48,0-.48.81,0,.81h7.89c.48,0,.48-.81,0-.81Z"/>
    </g>
  </g>
</svg>