<?xml version="1.0" encoding="UTF-8"?>
<svg id="Camada_2" data-name="Camada 2" xmlns="http://www.w3.org/2000/svg" viewBox="0 0 32.1 36.69">
  <g id="Layer_1" data-name="Layer 1">
    <g>
      <path d="M32.1,1.64c0-.9-.73-1.64-1.64-1.64H1.64C.73,0,0,.74,0,1.64s.71,1.6,1.58,1.63c-.06.23-.09.47-.09.72v15.2c0,.25.03.49.09.72-.88.03-1.58.75-1.58,1.63s.73,1.64,1.64,1.64h12.94c-.02.1-.03.21-.03.32v3.89c-.08.05-.15.11-.22.18l-5.56,5.77c-.26.27-.37.67-.3,1.08.06.37.26.73.56,1.02.3.29.67.47,1.04.52.42.05.81-.07,1.07-.34l3.42-3.55v2.92c0,.94.73,1.71,1.64,1.71s1.64-.77,1.64-1.71v-2.93l3.93,3.78c.28.27.67.38,1.09.32.38-.06.75-.25,1.03-.55.29-.3.47-.67.51-1.06.04-.42-.09-.81-.37-1.08h0l-6.05-5.82s-.09-.08-.15-.12v-4.03c0-.11-.01-.22-.03-.32h12.68c.9,0,1.64-.73,1.64-1.64,0-.67-.41-1.25-.99-1.5.08-.27.12-.55.12-.85V3.99c0-.29-.04-.58-.12-.85.58-.25.99-.83.99-1.5ZM23.37,34.13c.09.09.1.24.09.31-.02.17-.11.36-.26.51-.14.15-.33.25-.5.28-.08.01-.22.02-.32-.08l-4.71-4.53c-.13-.13-.33-.17-.5-.09-.17.07-.28.24-.28.43v4.02c0,.43-.32.79-.71.79s-.71-.35-.71-.79v-4.07c0-.19-.11-.36-.29-.43-.06-.02-.11-.03-.17-.03-.12,0-.24.05-.33.14l-4.21,4.38c-.08.08-.21.08-.28.07-.17-.02-.36-.12-.51-.27-.15-.15-.26-.33-.29-.5-.01-.07-.02-.21.06-.29l5.56-5.77s.07-.05.12-.06c.21-.05.36-.23.36-.45v-4.2c0-.12.02-.22.06-.32h1.3c.04.1.06.21.06.32v4.32c0,.2.13.38.32.44.05.01.08.03.11.06l6.05,5.82ZM31.18,21.54c0,.39-.32.71-.71.71H1.64c-.39,0-.71-.32-.71-.71s.32-.71.71-.71h28.83c.39,0,.71.32.71.71ZM2.88,19.19V3.99c0-.26.06-.5.17-.71h26.64c.1.22.17.46.17.71v15.2c0,.26-.06.5-.17.71H3.05c-.1-.22-.17-.46-.17-.71ZM30.47,2.35H1.64c-.39,0-.71-.32-.71-.71s.32-.71.71-.71h28.83c.39,0,.71.32.71.71s-.32.71-.71.71Z"/>
      <path d="M26.11,6c-.31-.23-.74-.17-.97.14l-4.2,5.57-5.59-2.8c-.31-.16-.69-.06-.89.24l-3.87,5.8h-4.17c-.38,0-.69.31-.69.69s.31.69.69.69h4.54c.23,0,.45-.12.58-.31l3.73-5.6,5.56,2.78c.3.15.66.06.86-.2l4.54-6.03c.23-.31.17-.74-.14-.97Z"/>
    </g>
  </g>
</svg>