<?xml version="1.0" encoding="UTF-8"?>
<svg id="Camada_2" data-name="Camada 2" xmlns="http://www.w3.org/2000/svg" viewBox="0 0 5.56 4.82">
  <g id="Layer_1" data-name="Layer 1">
    <g>
      <path d="M5,4.82H.56s-.09-.04-.09-.09V2H.09s-.07-.03-.08-.06c-.01-.04,0-.08.04-.1L2.73.02s.07-.02.1,0l2.69,1.82s.05.06.04.1c-.01.04-.05.06-.08.06h-.38v2.74s-.04.09-.09.09ZM.65,4.65h4.26V1.91s.04-.09.09-.09h.18L2.78.2.38,1.82h.18s.09.04.09.09v2.74Z"/>
      <path d="M4.27,4.82H1.29s-.09-.04-.09-.09v-2.57s.04-.09.09-.09h2.98s.09.04.09.09v2.57s-.04.09-.09.09ZM1.38,4.65h2.8v-2.39H1.38v2.39Z"/>
      <path d="M2.97,4.82h-.38s-.09-.04-.09-.09v-2.57s.04-.09.09-.09h.38s.09.04.09.09v2.57s-.04.09-.09.09ZM2.68,4.65h.2v-2.39h-.2v2.39Z"/>
      <path d="M2.97,4.82s-.03,0-.04,0c-.04-.02-.06-.08-.04-.12l1.3-2.57s.08-.06.12-.04c.04.02.06.08.04.12l-1.3,2.57s-.05.05-.08.05Z"/>
      <path d="M4.27,4.82s-.06-.02-.08-.05l-1.3-2.57s0-.1.04-.12c.04-.02.1,0,.12.04l1.3,2.57s0,.1-.04.12c-.01,0-.03,0-.04,0Z"/>
      <path d="M2.59,4.82s-.06-.02-.08-.05l-1.3-2.57s0-.1.04-.12c.04-.02.1,0,.12.04l1.3,2.57s0,.1-.04.12c-.01,0-.03,0-.04,0Z"/>
      <path d="M1.29,4.82s-.03,0-.04,0c-.04-.02-.06-.08-.04-.12l1.3-2.57s.08-.06.12-.04c.04.02.06.08.04.12l-1.3,2.57s-.05.05-.08.05Z"/>
      <path d="M.83,2h-.27s-.09-.04-.09-.09.04-.09.09-.09h.27s.09.04.09.09-.04.09-.09.09Z"/>
      <path d="M3.67,1.43H.97s-.09-.04-.09-.09.04-.09.09-.09h2.7s.09.04.09.09-.04.09-.09.09Z"/>
      <path d="M2.78.73h-.82s-.09-.04-.09-.09.04-.09.09-.09h.82s.09.04.09.09-.04.09-.09.09Z"/>
      <path d="M5.47,4.82H.09s-.09-.04-.09-.09.04-.09.09-.09h5.39s.09.04.09.09-.04.09-.09.09Z"/>
    </g>
  </g>
</svg>