<?xml version="1.0" encoding="UTF-8"?>
<svg id="Camada_2" data-name="Camada 2" xmlns="http://www.w3.org/2000/svg" viewBox="0 0 39.84 33.42">
  <g id="Layer_1" data-name="Layer 1">
    <g>
      <path d="M21.38,21.04v2.74c.1-.05.2-.09.29-.15.52-.32.78-.76.78-1.33,0-.61-.36-1.03-1.08-1.26Z"/>
      <path d="M36,6.16h-5.85v-1.28c0-2.69-2.19-4.88-4.89-4.88h-10.69c-2.69,0-4.88,2.19-4.88,4.88v1.28H3.84c-2.12,0-3.84,1.72-3.84,3.84v19.58c0,2.12,1.72,3.84,3.84,3.84h32.16c2.12,0,3.84-1.72,3.84-3.84V10c0-2.12-1.72-3.84-3.84-3.84ZM38.46,29.58c0,1.35-1.1,2.45-2.45,2.45H3.84c-1.35,0-2.45-1.1-2.45-2.45V10c0-1.35,1.1-2.45,2.45-2.45h6.55c.38,0,.69-.31.69-.69v-1.97c0-1.93,1.57-3.5,3.5-3.5h10.69c1.93,0,3.5,1.57,3.5,3.5v1.97c0,.38.31.69.69.69h6.55c1.35,0,2.45,1.1,2.45,2.45v19.58Z"/>
      <path d="M25.27,3.15h-10.69c-.96,0-1.74.78-1.74,1.74v1.97c0,.38.31.69.69.69h2.65s.02,0,.04,0h.53s.02,0,.04,0h.85s.02,0,.04,0h4.49s.02,0,.04,0h.85s.02,0,.04,0h.53s.02,0,.04,0h2.65c.38,0,.69-.31.69-.69v-1.97c0-.96-.78-1.74-1.74-1.74ZM25.62,6.16h-2s-.02,0-.04,0h-.46s-.02,0-.04,0h-.92s-.02,0-.04,0h-4.42s-.02,0-.04,0h-.92s-.02,0-.04,0h-.46s-.02,0-.04,0h-2v-1.28c0-.19.16-.35.35-.35h10.69c.19,0,.35.16.35.35v1.28Z"/>
      <path d="M22.07,17.53v-.62c.25.15.53.22.83.22h0c.33,0,.67-.16.76-.21.01,0,.02-.01.03-.02,0,0,.02,0,.03-.02l1.49-.93c.4-.25.63-.63.63-1.07,0-.35-.13-.66-.39-.92-.9-1.02-2.04-1.7-3.39-2.04v-.85c0-.78-.64-1.42-1.42-1.42h-1.33c-.78,0-1.42.64-1.42,1.42v.79c-.53.11-1.01.27-1.46.47-2.56,1.16-3.06,2.98-3.04,4.29.02.94.31,1.79.85,2.51.79,1.06,2.02,1.78,3.64,2.13v1.41c-.31-.22-.62-.48-.91-.8-.27-.34-.67-.53-1.11-.53h0c-.23,0-.49.09-.67.17,0,0-.02,0-.03.01-.02,0-.04.02-.05.03l-1.35.79c-.45.26-.7.67-.69,1.14,0,.3.11.57.31.81.39.54.91,1.05,1.54,1.53.89.68,1.88,1.15,2.97,1.41v.66c0,.78.64,1.42,1.42,1.42h1.33c.78,0,1.42-.64,1.42-1.42v-.66c.92-.2,1.75-.54,2.46-1h0c1.44-.95,2.18-2.28,2.21-3.95.02-1.07-.28-1.99-.91-2.75-.85-1.01-2.12-1.69-3.77-2.02ZM23.78,25.09c-.69.45-1.53.76-2.5.9-.34.05-.59.34-.59.69v1.24s-.01.03-.03.03h-1.33s-.03-.01-.03-.03v-1.23c0-.34-.25-.63-.58-.68-1.09-.17-2.07-.59-2.93-1.26-.52-.39-.93-.8-1.24-1.22l1.25-.73s.08-.03.11-.04c0,0,.02,0,.02,0,.01.02.03.03.04.05.74.8,1.55,1.37,2.41,1.67.21.08.45.04.63-.09.18-.13.29-.34.29-.57v-3.12c0-.34-.25-.63-.59-.68-1.55-.24-2.67-.81-3.33-1.7-.38-.5-.56-1.05-.58-1.71-.02-1.33.7-2.31,2.23-3.01.49-.22,1.05-.38,1.67-.46.34-.05.6-.34.6-.69v-1.37s.01-.03.03-.03h1.33s.03.01.03.03v1.41c0,.34.24.62.57.68,1.28.22,2.31.77,3.13,1.67l-1.36.85s-.11.04-.12.05c-.07,0-.12-.02-.17-.06-.33-.29-.69-.52-1.06-.7-.21-.1-.47-.09-.67.04-.2.13-.32.35-.32.58v2.5c0,.35.25.64.6.69,1.6.22,2.77.77,3.49,1.63.41.5.6,1.1.59,1.83-.02,1.21-.54,2.13-1.59,2.82Z"/>
      <path d="M17.73,16.64c0,.53.3.91.88,1.13v-2.22s-.07.03-.1.04c-.52.25-.78.6-.77,1.05Z"/>
    </g>
  </g>
</svg>