<?xml version="1.0" encoding="UTF-8"?>
<svg id="Camada_2" data-name="Camada 2" xmlns="http://www.w3.org/2000/svg" viewBox="0 0 26.06 31.67">
  <g id="Layer_1" data-name="Layer 1">
    <g>
      <path d="M19.05,31.5h0c.15,0,.29-.05.41-.16l6.33-5.97c.12-.11.18-.27.18-.43.06-.1.1-.23.1-.36V2.5c0-1.38-1.12-2.5-2.5-2.5H2.5C1.12,0,0,1.12,0,2.5v26.67c0,1.38,1.12,2.5,2.5,2.5h16.11c.17,0,.32-.06.44-.16ZM19.64,29.55v-2.29c0-.95.77-1.71,1.71-1.71h2.54l-4.25,4.01ZM17.91,30.28H2.5c-.61,0-1.11-.5-1.11-1.11V2.5c0-.61.5-1.11,1.11-1.11h21.07c.61,0,1.11.5,1.11,1.11v21.41h-3.24c-1.94,0-3.53,1.58-3.53,3.53v2.85Z"/>
      <path d="M5.4,9.22h15.27c.38,0,.69-.31.69-.69v-1.24c0-.38-.31-.69-.69-.69H5.4c-.38,0-.69.31-.69.69v1.24c0,.38.31.69.69.69ZM5.54,7.42h14.99v.96H5.54v-.96Z"/>
      <path d="M5.4,13.56h15.27c.38,0,.69-.31.69-.69v-1.24c0-.38-.31-.69-.69-.69H5.4c-.38,0-.69.31-.69.69v1.24c0,.38.31.69.69.69ZM5.54,11.77h14.99v.96H5.54v-.96Z"/>
      <path d="M21.36,17.22v-1.24c0-.38-.31-.69-.69-.69H5.4c-.38,0-.69.31-.69.69v1.24c0,.38.31.69.69.69h15.27c.38,0,.69-.31.69-.69ZM20.53,17.08H5.54v-.96h14.99v.96Z"/>
    </g>
  </g>
</svg>