<?xml version="1.0" encoding="UTF-8"?>
<svg id="Camada_2" data-name="Camada 2" xmlns="http://www.w3.org/2000/svg" viewBox="0 0 2203.7 940.07">
  <defs>
    <style>
      .cls-1 {
        fill: #19351c;
      }

      .cls-2 {
        fill: #178035;
      }

      .cls-3 {
        fill: #fff;
        fill-rule: evenodd;
      }

      .cls-4 {
        fill: #1c4720;
      }

      .cls-5 {
        fill: #12602c;
      }
    </style>
  </defs>
  <g id="Camada_1-2" data-name="Camada 1">
    <g>
      <path class="cls-2" d="M53.35,218.94l148.81-51.2v521.54c0,32.81-24.01,67.92-53.34,78.02L0,818.49V296.95c0-32.81,24-67.92,53.35-78.01"/>
      <path class="cls-4" d="M555.04,172.78l148.81-51.19v521.54c0,32.81-24.01,67.91-53.35,78.01l-148.81,51.19V250.79c0-32.82,24-67.92,53.34-78.01"/>
      <polygon class="cls-5" points="202.16 323.67 202.16 388.46 152.02 388.46 202.16 323.67"/>
      <polygon class="cls-1" points="501.7 674.06 501.7 609.26 551.84 674.06 501.7 674.06"/>
      <path class="cls-5" d="M304.2,51.19L453,0v810.87c0,32.81-24.01,67.92-53.34,78.01l-148.81,51.2V129.2c0-32.81,24-67.91,53.34-78.01"/>
      <polygon class="cls-4" points="250.85 388.46 250.85 323.66 300.99 388.46 250.85 388.46"/>
      <polygon class="cls-4" points="453 609.26 453 674.06 402.86 674.06 453 609.26"/>
      <polygon class="cls-3" points="226.5 270.09 300.99 366.35 152.02 366.35 226.5 270.09"/>
      <polygon class="cls-3" points="477.35 555.69 551.84 651.95 402.86 651.95 477.35 555.69"/>
      <path class="cls-4" d="M846.75,127.96h199.33c29.27,0,55.41,4.07,78.41,12.2,23,8.13,42.51,19.63,58.54,34.5,16.03,14.88,28.33,32.65,36.94,53.32,8.59,20.68,12.89,43.56,12.89,68.65v1.39c0,28.35-5.12,53.21-15.33,74.57-10.23,21.38-24.29,39.27-42.17,53.67-17.89,14.41-38.8,25.21-62.72,32.41-23.94,7.21-49.6,10.8-77.01,10.8h-81.54v146.36h-107.33V127.96ZM1039.11,373.98c26.94,0,47.85-7.08,62.72-21.26,14.86-14.17,22.3-31.71,22.3-52.62v-1.39c0-24.15-7.79-42.51-23.35-55.06-15.57-12.54-36.83-18.82-63.77-18.82h-82.94v149.15h85.03Z"/>
      <path class="cls-4" d="M1284.43,127.96h223.02c61.79,0,109.18,16.5,142.18,49.48,27.88,27.88,41.82,65.06,41.82,111.51v1.39c0,39.5-9.65,71.68-28.92,96.53-19.28,24.86-44.49,43.1-75.62,54.71l119.18,174.23h-125.45l-104.54-156.12h-84.33v156.12h-107.33V127.96ZM1500.49,364.92c26.48,0,46.8-6.27,60.98-18.82,14.17-12.55,21.26-29.27,21.26-50.18v-1.39c0-23.23-7.44-40.65-22.3-52.27-14.88-11.61-35.55-17.42-62.03-17.42h-106.63v140.09h108.72Z"/>
      <path class="cls-4" d="M1995.31,624.18c-38.1,0-72.83-6.27-104.19-18.82-31.36-12.55-58.31-29.97-80.84-52.27-22.54-22.3-40.07-48.79-52.62-79.45-12.54-30.66-18.82-64.12-18.82-100.36v-1.39c0-34.85,6.38-67.48,19.17-97.92,12.77-30.43,30.55-57.15,53.32-80.15,22.76-23,49.71-41.12,80.85-54.36,31.12-13.24,65.27-19.86,102.45-19.86,21.83,0,41.7,1.51,59.59,4.53,17.88,3.03,34.5,7.32,49.83,12.89,15.33,5.58,29.73,12.54,43.21,20.91,13.47,8.36,26.48,17.89,39.03,28.57l-67.6,81.54c-9.3-7.9-18.59-14.87-27.88-20.91-9.3-6.03-18.94-11.15-28.92-15.33-10-4.18-20.8-7.43-32.41-9.76-11.62-2.32-24.39-3.48-38.33-3.48-19.51,0-37.75,4.08-54.71,12.23-16.97,8.15-31.83,19.09-44.6,32.83-12.78,13.74-22.77,29.81-29.97,48.2-7.21,18.39-10.8,38.07-10.8,59.02v1.39c0,22.36,3.59,42.96,10.8,61.82,7.2,18.86,17.42,35.28,30.67,49.24,13.24,13.97,28.8,24.8,46.7,32.48,17.88,7.69,37.74,11.52,59.59,11.52,39.96,0,73.64-9.82,101.06-29.48v-70.18h-108.02v-92.69h211.87v211.87c-25.09,21.38-54.95,39.62-89.56,54.71-34.62,15.09-74.23,22.65-118.83,22.65"/>
      <path class="cls-4" d="M846.6,686.05h17.1c2.51,0,4.75.35,6.73,1.05,1.97.7,3.65,1.68,5.02,2.96,1.38,1.28,2.43,2.8,3.17,4.58.74,1.77,1.11,3.74,1.11,5.89v.12c0,2.43-.44,4.57-1.32,6.4-.88,1.83-2.08,3.37-3.62,4.6-1.54,1.24-3.33,2.16-5.38,2.78-2.05.62-4.26.93-6.61.93h-6.99v12.56h-9.21v-41.85ZM863.1,707.16c2.31,0,4.1-.61,5.38-1.82,1.28-1.22,1.91-2.72,1.91-4.51v-.12c0-2.07-.67-3.65-2-4.72-1.34-1.08-3.16-1.61-5.47-1.61h-7.11v12.79h7.29Z"/>
      <path class="cls-4" d="M886.54,686.05h19.13c5.3,0,9.36,1.42,12.2,4.24,2.39,2.39,3.59,5.58,3.59,9.57v.12c0,3.39-.83,6.15-2.48,8.28-1.65,2.13-3.82,3.7-6.49,4.69l10.22,14.95h-10.76l-8.97-13.39h-7.23v13.39h-9.21v-41.85ZM905.07,706.38c2.27,0,4.01-.54,5.23-1.61,1.22-1.08,1.82-2.51,1.82-4.3v-.12c0-1.99-.64-3.49-1.91-4.48-1.28-1-3.05-1.5-5.32-1.5h-9.15v12.02h9.33Z"/>
      <path class="cls-4" d="M950.09,728.62c-3.23,0-6.2-.57-8.91-1.7-2.71-1.14-5.05-2.67-7.02-4.6-1.97-1.93-3.51-4.2-4.6-6.82-1.1-2.61-1.64-5.41-1.64-8.4v-.12c0-2.99.56-5.79,1.67-8.4,1.11-2.61,2.66-4.9,4.63-6.88,1.97-1.97,4.32-3.53,7.05-4.66,2.73-1.14,5.71-1.7,8.94-1.7s6.2.57,8.91,1.7c2.71,1.14,5.05,2.67,7.03,4.6,1.97,1.93,3.51,4.21,4.6,6.82,1.1,2.61,1.64,5.41,1.64,8.4v.12c0,2.99-.56,5.79-1.67,8.4-1.12,2.61-2.66,4.9-4.63,6.88-1.97,1.97-4.32,3.53-7.05,4.66-2.73,1.14-5.71,1.7-8.94,1.7M950.21,720.13c1.83,0,3.53-.34,5.08-1.02,1.55-.68,2.88-1.61,3.98-2.81,1.09-1.2,1.95-2.58,2.57-4.15.62-1.58.93-3.26.93-5.05v-.12c0-1.79-.31-3.49-.93-5.08-.62-1.59-1.49-2.99-2.63-4.19-1.14-1.2-2.48-2.14-4.04-2.84-1.55-.7-3.25-1.05-5.08-1.05s-3.58.34-5.11,1.02c-1.54.68-2.85,1.61-3.95,2.81-1.1,1.2-1.95,2.58-2.57,4.15-.62,1.58-.93,3.26-.93,5.05v.12c0,1.79.31,3.49.93,5.08.62,1.59,1.49,2.99,2.63,4.18,1.14,1.2,2.47,2.14,4.01,2.84,1.53.7,3.24,1.05,5.11,1.05"/>
      <path class="cls-4" d="M1000.72,728.62c-3.27,0-6.25-.54-8.94-1.61-2.69-1.08-5-2.57-6.93-4.49-1.93-1.91-3.44-4.18-4.51-6.81-1.08-2.63-1.61-5.5-1.61-8.61v-.12c0-2.99.55-5.79,1.64-8.4,1.09-2.61,2.62-4.9,4.57-6.88,1.95-1.97,4.26-3.53,6.94-4.66,2.67-1.14,5.6-1.7,8.79-1.7,1.87,0,3.58.13,5.11.39,1.53.26,2.96.63,4.28,1.11,1.32.48,2.55,1.08,3.71,1.79,1.16.72,2.27,1.53,3.35,2.45l-5.8,6.99c-.8-.68-1.59-1.27-2.39-1.79-.8-.52-1.62-.96-2.48-1.32-.86-.36-1.78-.64-2.78-.84-1-.2-2.09-.3-3.29-.3-1.68,0-3.24.35-4.69,1.05-1.46.7-2.73,1.64-3.83,2.82-1.1,1.18-1.95,2.56-2.57,4.14-.62,1.58-.93,3.27-.93,5.06v.12c0,1.92.31,3.69.93,5.3.62,1.62,1.49,3.03,2.63,4.23,1.14,1.2,2.47,2.13,4.01,2.79,1.53.66,3.24.99,5.11.99,3.43,0,6.32-.84,8.67-2.53v-6.02h-9.27v-7.95h18.17v18.17c-2.15,1.83-4.71,3.4-7.68,4.69-2.97,1.3-6.37,1.94-10.19,1.94"/>
      <path class="cls-4" d="M1027.45,686.05h19.13c5.3,0,9.36,1.42,12.2,4.24,2.39,2.39,3.59,5.58,3.59,9.57v.12c0,3.39-.83,6.15-2.48,8.28-1.65,2.13-3.82,3.7-6.49,4.69l10.22,14.95h-10.76l-8.97-13.39h-7.23v13.39h-9.21v-41.85ZM1045.98,706.38c2.27,0,4.01-.54,5.23-1.61,1.22-1.08,1.82-2.51,1.82-4.3v-.12c0-1.99-.64-3.49-1.91-4.48-1.28-1-3.05-1.5-5.32-1.5h-9.15v12.02h9.33Z"/>
      <path class="cls-4" d="M1085.02,685.76h8.49l17.93,42.15h-9.62l-3.83-9.39h-17.7l-3.83,9.39h-9.39l17.94-42.15ZM1094.7,710.39l-5.56-13.57-5.56,13.57h11.12Z"/>
      <polygon class="cls-4" points="1117.9 686.05 1127.82 686.05 1138.82 703.75 1149.82 686.05 1159.75 686.05 1159.75 727.9 1150.66 727.9 1150.66 700.58 1138.88 718.46 1138.64 718.46 1126.99 700.76 1126.99 727.9 1117.9 727.9 1117.9 686.05"/>
      <path class="cls-4" d="M1184.14,685.76h8.49l17.94,42.15h-9.63l-3.83-9.39h-17.7l-3.83,9.39h-9.39l17.94-42.15ZM1193.82,710.39l-5.56-13.57-5.56,13.57h11.12Z"/>
      <path class="cls-4" d="M1234.96,686.05h16.32c3.27,0,6.27.53,9,1.58,2.73,1.06,5.08,2.52,7.05,4.39,1.97,1.87,3.5,4.08,4.57,6.61,1.08,2.53,1.61,5.27,1.61,8.22v.12c0,2.95-.54,5.7-1.61,8.25-1.08,2.55-2.6,4.76-4.57,6.64-1.97,1.88-4.32,3.35-7.05,4.42-2.73,1.08-5.73,1.62-9,1.62h-16.32v-41.85ZM1251.28,719.59c1.87,0,3.59-.3,5.14-.9,1.55-.6,2.88-1.46,3.97-2.57,1.1-1.11,1.95-2.43,2.57-3.95.62-1.51.93-3.21.93-5.08v-.12c0-1.83-.31-3.53-.93-5.08-.62-1.55-1.48-2.89-2.57-4.01-1.1-1.11-2.42-1.98-3.97-2.6-1.56-.62-3.27-.93-5.14-.93h-7.11v25.23h7.11Z"/>
      <polygon class="cls-4" points="1281.71 686.05 1313.21 686.05 1313.21 694.24 1290.79 694.24 1290.79 702.73 1310.52 702.73 1310.52 710.92 1290.79 710.92 1290.79 719.71 1313.51 719.71 1313.51 727.9 1281.71 727.9 1281.71 686.05"/>
      <path class="cls-4" d="M1339.7,686.05h19.13c5.3,0,9.37,1.42,12.2,4.24,2.39,2.39,3.59,5.58,3.59,9.57v.12c0,3.39-.83,6.15-2.48,8.28-1.65,2.13-3.82,3.7-6.49,4.69l10.22,14.95h-10.76l-8.97-13.39h-7.23v13.39h-9.21v-41.85ZM1358.23,706.38c2.27,0,4.01-.54,5.23-1.61,1.21-1.08,1.82-2.51,1.82-4.3v-.12c0-1.99-.64-3.49-1.91-4.48-1.28-1-3.05-1.5-5.32-1.5h-9.15v12.02h9.33Z"/>
      <polygon class="cls-4" points="1382.92 686.05 1414.43 686.05 1414.43 694.24 1392.01 694.24 1392.01 702.73 1411.73 702.73 1411.73 710.92 1392.01 710.92 1392.01 719.71 1414.72 719.71 1414.72 727.9 1382.92 727.9 1382.92 686.05"/>
      <path class="cls-4" d="M1442.58,728.62c-3.07,0-5.92-.56-8.55-1.67-2.63-1.11-4.9-2.64-6.81-4.57-1.91-1.93-3.41-4.21-4.48-6.84-1.08-2.63-1.61-5.44-1.61-8.43v-.12c0-2.99.54-5.79,1.61-8.4,1.08-2.61,2.57-4.9,4.48-6.88,1.91-1.97,4.2-3.53,6.88-4.66,2.67-1.14,5.62-1.7,8.85-1.7,1.95,0,3.74.16,5.35.48,1.61.32,3.08.76,4.39,1.32,1.32.56,2.53,1.24,3.65,2.03,1.11.8,2.15,1.67,3.11,2.63l-5.86,6.76c-1.64-1.47-3.3-2.63-4.99-3.47-1.7-.84-3.6-1.26-5.71-1.26-1.75,0-3.38.34-4.87,1.02-1.49.68-2.78,1.61-3.86,2.81-1.08,1.2-1.91,2.58-2.51,4.16-.6,1.58-.9,3.26-.9,5.05v.12c0,1.79.3,3.49.9,5.08.6,1.6,1.42,2.99,2.48,4.18,1.06,1.2,2.33,2.14,3.83,2.84,1.49.7,3.14,1.05,4.93,1.05,2.39,0,4.41-.44,6.07-1.32,1.65-.88,3.3-2.07,4.93-3.59l5.86,5.92c-1.08,1.16-2.19,2.19-3.35,3.11-1.16.92-2.42,1.7-3.8,2.36-1.38.66-2.88,1.16-4.51,1.49-1.64.34-3.47.51-5.5.51"/>
      <path class="cls-4" d="M1484.55,728.56c-5.62,0-10.04-1.55-13.27-4.66-3.23-3.11-4.84-7.75-4.84-13.93v-23.91h9.21v23.67c0,3.43.8,6.01,2.39,7.74,1.59,1.73,3.81,2.6,6.64,2.6s5.04-.84,6.64-2.51c1.59-1.67,2.39-4.18,2.39-7.53v-23.97h9.21v23.61c0,3.19-.43,5.96-1.29,8.31-.86,2.35-2.08,4.31-3.68,5.89-1.59,1.57-3.53,2.75-5.8,3.53-2.27.78-4.8,1.16-7.59,1.16"/>
      <path class="cls-4" d="M1512.29,686.05h17.1c2.51,0,4.75.35,6.73,1.05,1.97.7,3.65,1.68,5.02,2.96,1.38,1.28,2.43,2.8,3.17,4.58.74,1.77,1.11,3.74,1.11,5.89v.12c0,2.43-.44,4.57-1.32,6.4-.88,1.83-2.08,3.37-3.62,4.6-1.54,1.24-3.33,2.16-5.38,2.78-2.05.62-4.26.93-6.61.93h-6.99v12.56h-9.21v-41.85ZM1528.79,707.16c2.31,0,4.1-.61,5.38-1.82,1.28-1.22,1.91-2.72,1.91-4.51v-.12c0-2.07-.67-3.65-2-4.72-1.34-1.08-3.16-1.61-5.47-1.61h-7.11v12.79h7.29Z"/>
      <polygon class="cls-4" points="1552.23 686.05 1583.73 686.05 1583.73 694.24 1561.31 694.24 1561.31 702.73 1581.04 702.73 1581.04 710.92 1561.31 710.92 1561.31 719.71 1584.03 719.71 1584.03 727.9 1552.23 727.9 1552.23 686.05"/>
      <path class="cls-4" d="M1592.28,686.05h19.13c5.3,0,9.37,1.42,12.2,4.24,2.39,2.39,3.59,5.58,3.59,9.57v.12c0,3.39-.83,6.15-2.48,8.28-1.65,2.13-3.82,3.7-6.49,4.69l10.22,14.95h-10.76l-8.97-13.39h-7.23v13.39h-9.21v-41.85ZM1610.82,706.38c2.27,0,4.01-.54,5.23-1.61,1.21-1.08,1.82-2.51,1.82-4.3v-.12c0-1.99-.64-3.49-1.91-4.48-1.28-1-3.05-1.5-5.32-1.5h-9.15v12.02h9.33Z"/>
      <path class="cls-4" d="M1649.85,685.76h8.49l17.94,42.15h-9.63l-3.83-9.39h-17.69l-3.83,9.39h-9.39l17.94-42.15ZM1659.54,710.39l-5.56-13.57-5.56,13.57h11.12Z"/>
      <path class="cls-4" d="M1692.42,735.08l4.78-7.05c-2.39-.56-4.59-1.47-6.61-2.75-2.01-1.27-3.74-2.83-5.17-4.66-1.44-1.83-2.55-3.89-3.35-6.19-.8-2.29-1.2-4.73-1.2-7.32v-.12c0-2.99.54-5.79,1.61-8.4,1.07-2.61,2.57-4.9,4.48-6.88,1.91-1.97,4.2-3.53,6.88-4.66,2.67-1.14,5.62-1.7,8.85-1.7,1.95,0,3.74.16,5.35.48,1.61.32,3.08.76,4.39,1.32,1.32.56,2.53,1.23,3.65,2.03,1.11.8,2.15,1.67,3.11,2.63l-5.86,6.76c-1.64-1.47-3.3-2.63-4.99-3.47-1.7-.84-3.6-1.26-5.71-1.26-1.75,0-3.38.34-4.87,1.02-1.5.68-2.78,1.61-3.86,2.81-1.08,1.2-1.91,2.58-2.51,4.16-.6,1.58-.9,3.26-.9,5.05v.12c0,1.79.3,3.49.9,5.08.6,1.59,1.43,2.99,2.48,4.18,1.06,1.2,2.33,2.14,3.83,2.84,1.49.7,3.14,1.05,4.93,1.05,2.39,0,4.41-.44,6.07-1.32,1.65-.88,3.3-2.07,4.93-3.59l5.86,5.92c-1,1.08-2.03,2.05-3.11,2.93-1.08.88-2.24,1.64-3.5,2.27-1.25.64-2.62,1.15-4.09,1.52-1.48.38-3.11.61-4.9.69l-3.89,9.69-7.59-3.17Z"/>
      <path class="cls-4" d="M1741.2,685.76h8.49l17.94,42.15h-9.63l-3.83-9.39h-17.7l-3.83,9.39h-9.39l17.94-42.15ZM1733.13,681.87c.36-1.23.75-2.36,1.17-3.38.42-1.02.92-1.88,1.49-2.6.58-.72,1.26-1.28,2.03-1.67.78-.4,1.68-.6,2.72-.6.92,0,1.8.12,2.66.36.86.24,1.66.51,2.42.81.76.3,1.45.57,2.09.81.64.24,1.23.36,1.79.36.92,0,1.6-.25,2.06-.75.46-.5.91-1.22,1.35-2.18l4.84,1.49c-.68,2.51-1.57,4.51-2.66,6.01-1.1,1.5-2.68,2.24-4.75,2.24-.92,0-1.8-.12-2.66-.36-.86-.24-1.66-.51-2.42-.81-.76-.3-1.47-.57-2.12-.81-.66-.24-1.25-.36-1.76-.36-.92,0-1.6.25-2.06.75-.46.5-.91,1.23-1.35,2.18l-4.84-1.5ZM1750.89,710.39l-5.56-13.57-5.56,13.57h11.12Z"/>
      <path class="cls-4" d="M1794.41,728.62c-3.23,0-6.2-.57-8.91-1.7-2.71-1.14-5.05-2.67-7.02-4.6-1.97-1.93-3.51-4.2-4.6-6.82-1.1-2.61-1.64-5.41-1.64-8.4v-.12c0-2.99.56-5.79,1.67-8.4,1.11-2.61,2.66-4.9,4.63-6.88,1.97-1.97,4.32-3.53,7.05-4.66,2.73-1.14,5.71-1.7,8.94-1.7s6.2.57,8.91,1.7c2.71,1.14,5.05,2.67,7.02,4.6,1.97,1.93,3.51,4.21,4.6,6.82,1.1,2.61,1.64,5.41,1.64,8.4v.12c0,2.99-.56,5.79-1.67,8.4-1.12,2.61-2.66,4.9-4.63,6.88-1.97,1.97-4.32,3.53-7.05,4.66-2.73,1.14-5.71,1.7-8.94,1.7M1794.53,720.13c1.83,0,3.53-.34,5.08-1.02,1.56-.68,2.88-1.61,3.98-2.81,1.09-1.2,1.95-2.58,2.57-4.15.62-1.58.93-3.26.93-5.05v-.12c0-1.79-.31-3.49-.93-5.08-.62-1.59-1.49-2.99-2.63-4.19-1.14-1.2-2.48-2.14-4.04-2.84-1.55-.7-3.25-1.05-5.08-1.05s-3.58.34-5.11,1.02c-1.54.68-2.85,1.61-3.95,2.81-1.1,1.2-1.95,2.58-2.57,4.15-.62,1.58-.93,3.26-.93,5.05v.12c0,1.79.31,3.49.93,5.08.62,1.59,1.49,2.99,2.63,4.18,1.14,1.2,2.47,2.14,4.01,2.84,1.53.7,3.24,1.05,5.11,1.05"/>
      <path class="cls-4" d="M1862.98,728.62c-3.27,0-6.25-.54-8.94-1.61-2.69-1.08-5-2.57-6.93-4.49-1.94-1.91-3.44-4.18-4.51-6.81-1.08-2.63-1.61-5.5-1.61-8.61v-.12c0-2.99.55-5.79,1.64-8.4,1.09-2.61,2.62-4.9,4.57-6.88,1.95-1.97,4.26-3.53,6.94-4.66,2.67-1.14,5.6-1.7,8.79-1.7,1.87,0,3.58.13,5.11.39,1.53.26,2.96.63,4.27,1.11,1.32.48,2.55,1.08,3.71,1.79,1.16.72,2.27,1.53,3.35,2.45l-5.8,6.99c-.8-.68-1.59-1.27-2.39-1.79-.8-.52-1.62-.96-2.48-1.32-.86-.36-1.78-.64-2.78-.84-1-.2-2.09-.3-3.29-.3-1.67,0-3.24.35-4.69,1.05-1.46.7-2.73,1.64-3.83,2.82-1.1,1.18-1.95,2.56-2.57,4.14-.62,1.58-.93,3.27-.93,5.06v.12c0,1.92.31,3.69.93,5.3.62,1.62,1.49,3.03,2.63,4.23,1.14,1.2,2.47,2.13,4.01,2.79,1.53.66,3.24.99,5.11.99,3.43,0,6.32-.84,8.67-2.53v-6.02h-9.27v-7.95h18.18v18.17c-2.15,1.83-4.71,3.4-7.68,4.69-2.97,1.3-6.37,1.94-10.19,1.94"/>
      <polygon class="cls-4" points="1889.7 686.05 1921.21 686.05 1921.21 694.24 1898.79 694.24 1898.79 702.73 1918.52 702.73 1918.52 710.92 1898.79 710.92 1898.79 719.71 1921.51 719.71 1921.51 727.9 1889.7 727.9 1889.7 686.05"/>
      <path class="cls-4" d="M1929.76,686.05h19.13c5.3,0,9.37,1.42,12.2,4.24,2.39,2.39,3.59,5.58,3.59,9.57v.12c0,3.39-.83,6.15-2.48,8.28-1.65,2.13-3.82,3.7-6.49,4.69l10.22,14.95h-10.76l-8.97-13.39h-7.23v13.39h-9.21v-41.85ZM1948.29,706.38c2.27,0,4.01-.54,5.23-1.61,1.21-1.08,1.82-2.51,1.82-4.3v-.12c0-1.99-.64-3.49-1.91-4.48-1.28-1-3.05-1.5-5.32-1.5h-9.15v12.02h9.33Z"/>
      <polygon class="cls-4" points="1972.98 686.05 2004.49 686.05 2004.49 694.24 1982.07 694.24 1982.07 702.73 2001.8 702.73 2001.8 710.92 1982.07 710.92 1982.07 719.71 2004.79 719.71 2004.79 727.9 1972.98 727.9 1972.98 686.05"/>
      <polygon class="cls-4" points="2013.04 686.05 2021.53 686.05 2041.14 711.82 2041.14 686.05 2050.22 686.05 2050.22 727.9 2042.39 727.9 2022.13 701.3 2022.13 727.9 2013.04 727.9 2013.04 686.05"/>
      <path class="cls-4" d="M2079.88,728.62c-3.07,0-5.92-.56-8.55-1.67-2.63-1.11-4.9-2.64-6.81-4.57-1.91-1.93-3.41-4.21-4.48-6.84-1.08-2.63-1.61-5.44-1.61-8.43v-.12c0-2.99.54-5.79,1.61-8.4,1.08-2.61,2.57-4.9,4.48-6.88,1.91-1.97,4.2-3.53,6.88-4.66,2.67-1.14,5.62-1.7,8.85-1.7,1.95,0,3.74.16,5.35.48,1.61.32,3.08.76,4.39,1.32,1.32.56,2.53,1.24,3.65,2.03,1.11.8,2.15,1.67,3.11,2.63l-5.86,6.76c-1.64-1.47-3.3-2.63-4.99-3.47-1.7-.84-3.6-1.26-5.71-1.26-1.75,0-3.38.34-4.87,1.02-1.49.68-2.78,1.61-3.86,2.81-1.08,1.2-1.91,2.58-2.51,4.16-.6,1.58-.9,3.26-.9,5.05v.12c0,1.79.3,3.49.9,5.08.6,1.6,1.42,2.99,2.48,4.18,1.06,1.2,2.33,2.14,3.83,2.84,1.49.7,3.14,1.05,4.93,1.05,2.39,0,4.41-.44,6.07-1.32,1.65-.88,3.3-2.07,4.93-3.59l5.86,5.92c-1.08,1.16-2.19,2.19-3.35,3.11-1.16.92-2.42,1.7-3.8,2.36-1.38.66-2.88,1.16-4.51,1.49-1.64.34-3.47.51-5.5.51"/>
      <rect class="cls-4" x="2104.81" y="686.05" width="9.21" height="41.85"/>
      <path class="cls-4" d="M2138.82,685.76h8.49l17.94,42.15h-9.63l-3.83-9.39h-17.7l-3.83,9.39h-9.39l17.94-42.15ZM2148.51,710.39l-5.56-13.57-5.56,13.57h11.12Z"/>
      <polygon class="cls-4" points="2171.7 686.05 2180.91 686.05 2180.91 719.59 2201.77 719.59 2201.77 727.9 2171.7 727.9 2171.7 686.05"/>
    </g>
  </g>
</svg>