<?xml version="1.0" encoding="UTF-8"?>
<svg id="Camada_2" data-name="Camada 2" xmlns="http://www.w3.org/2000/svg" viewBox="0 0 30.01 29.98">
  <g id="Layer_1" data-name="Layer 1">
    <g>
      <path d="M.91,29.1c0,.49.41.89.9.88l27.31-.33c.49,0,.89-.41.88-.91,0-.49-.41-.89-.9-.88l-27.31.33c-.49,0-.89.41-.88.9Z"/>
      <path d="M12.47,26.19h.02l4.11-.07c.86-.01,1.53-.85,1.52-1.9l-.14-15.62c0-.57-.21-1.1-.57-1.45-.28-.27-.63-.42-.99-.41l-4.11.07c-.86.01-1.53.85-1.52,1.9l.14,15.62c0,.57.21,1.1.57,1.45.27.27.61.41.97.41ZM12.33,8.11l4.11-.07s.23.2.24.57l.14,15.62c0,.39-.19.58-.24.59l-4.11.07s-.23-.19-.24-.57l-.14-15.62c0-.39.19-.59.24-.59Z"/>
      <path d="M23.29,26.13h.03l4.11-.1c.87-.02,1.52-1.03,1.52-2.36l-.14-21.37c0-.81-.26-1.53-.68-1.94C27.87.12,27.57,0,27.24,0l-4.11.1c-.87.02-1.52,1.03-1.52,2.36l.14,21.37c0,.8.26,1.53.68,1.94.25.24.55.37.86.37ZM23.2,1.4l4.02-.09c.09.09.28.42.28,1.01l.14,21.37c0,.58-.19.96-.29,1.05l-4.02.09c-.09-.08-.28-.42-.28-1.01l-.14-21.37c0-.58.19-.96.29-1.05Z"/>
      <path d="M6.62,12.2c-.28-.27-.63-.42-.99-.41l-4.11.07h0C.66,11.87,0,12.71,0,13.76l.09,10.63c0,.57.21,1.1.57,1.45.27.26.61.41.97.41,0,0,.01,0,.02,0l4.11-.07c.86-.02,1.53-.85,1.52-1.9l-.09-10.62c0-.57-.21-1.1-.57-1.45ZM5.75,24.87l-4.11.07s-.23-.19-.24-.57l-.09-10.63c0-.39.19-.59.24-.59l4.11-.07c.05,0,.23.2.24.57l.09,10.63c0,.39-.19.58-.24.58Z"/>
    </g>
  </g>
</svg>