<?xml version="1.0" encoding="UTF-8"?>
<svg id="Camada_2" data-name="Camada 2" xmlns="http://www.w3.org/2000/svg" viewBox="0 0 40.77 31.38">
  <g id="Layer_1" data-name="Layer 1">
    <g>
      <path d="M5.41,10.75h16.87c.28,0,.5-.22.5-.5s-.22-.5-.5-.5H5.41c-.28,0-.5.22-.5.5s.22.5.5.5Z"/>
      <path d="M22.28,23.55H5.41c-.28,0-.5.22-.5.5s.22.5.5.5h16.87c.28,0,.5-.22.5-.5s-.22-.5-.5-.5Z"/>
      <path d="M39.86,1.15s-.02-.03-.03-.03c-.65-.65-1.38-.98-2.14-.98-1.19,0-2.04.83-2.11.9l-6.51,6.51c-.09.09-.15.22-.15.35,0,.04,0,.09.02.13l-.39.39-.18-.18-.68.68V0H0v31.38h27.69v-13.87l4.98-4.98-.18-.18.39-.39s.08.02.13.02c.13,0,.26-.05.35-.15l6.42-6.42s.97-.94.99-2.19c.01-.75-.29-1.44-.91-2.08ZM26.69,18.51v11.86H1V1h25.68v8.93l-5.59,5.59.4.4-.14.78H5.41c-.28,0-.5.22-.5.5s.22.5.5.5h15.78l-.42,2.45,4.24-.73.39.39,1.3-1.3.5-.5-.5.5ZM22.07,19.66l-.93.17h-.06s.17-.99.17-.99l.22.22.47-2.71,2.64,2.64-2.71.47.2.2ZM25.39,18.4l-2.88-2.88,5.86-5.86,2.88,2.88-5.86,5.86ZM31.96,12.18l-3.23-3.23.33-.33,3.23,3.23-.33.33ZM39.08,4.71l-6.07,6.07-2.88-2.88,6.16-6.16s0,0,0,0c0,0,.61-.6,1.4-.6.49,0,.96.22,1.42.67,0,.01.02.02.03.03.43.43.64.9.64,1.37,0,.83-.68,1.49-.69,1.5Z"/>
      <path d="M29.05,6.26c.17.17.45.17.62,0l4.62-4.62c.17-.17.17-.45,0-.62h0c-.17-.18-.45-.18-.62,0l-4.62,4.62c-.17.17-.17.45,0,.62h0Z"/>
    </g>
  </g>
</svg>