<?xml version="1.0" encoding="UTF-8"?>
<svg id="Camada_1" xmlns="http://www.w3.org/2000/svg" version="1.1" viewBox="0 0 533.52 125.67">
  <!-- Generator: Adobe Illustrator 29.7.1, SVG Export Plug-In . SVG Version: 2.1.1 Build 8)  -->
  <defs>
    <style>
      .st0 {
        fill: #182945;
      }
    </style>
  </defs>
  <g>
    <path class="st0" d="M62.82,125.67c-8.47,0-16.92-1.74-24.93-5.2-15.4-6.66-27.27-18.92-33.45-34.52-6.18-15.6-5.91-32.66.76-48.06C11.86,22.5,24.12,10.62,39.72,4.44c15.6-6.17,32.66-5.91,48.06.76,15.4,6.66,27.27,18.92,33.45,34.52,6.18,15.6,5.91,32.66-.76,48.06-6.66,15.39-18.92,27.27-34.52,33.45-7.49,2.96-15.31,4.44-23.13,4.44ZM62.85,5.02c-7.19,0-14.39,1.36-21.28,4.09-14.35,5.68-25.63,16.61-31.76,30.78-6.13,14.17-6.38,29.87-.69,44.22,5.68,14.35,16.61,25.63,30.78,31.76,14.17,6.13,29.87,6.38,44.22.69,14.35-5.68,25.63-16.61,31.76-30.78,6.13-14.17,6.38-29.87.69-44.22-5.68-14.35-16.61-25.63-30.78-31.76-7.36-3.19-15.15-4.78-22.94-4.78Z"/>
    <path class="st0" d="M52.47,123.41c-5.08,0-10.09-.98-14.83-3.03l1.99-4.6c21.57,9.33,49.41-6.87,62.07-36.13,12.66-29.25,5.41-60.65-16.15-69.98l1.99-4.6c24.1,10.43,32.52,44.78,18.76,76.57-11.05,25.53-33.09,41.77-53.83,41.77Z"/>
    <path class="st0" d="M38.35,120.68c-13.86-6-13.76-36.02.23-68.34,6.52-15.07,15.06-28.24,24.04-37.09,9.53-9.39,18.63-12.89,25.62-9.87l-1.99,4.6c-4.92-2.13-12.25,1.09-20.11,8.84-8.53,8.4-16.69,21.01-22.96,35.5-13.73,31.73-12.55,57.55-2.84,61.75l-1.99,4.6Z"/>
    <path class="st0" d="M96.6,98.12c-.52,0-1.04,0-1.57-.02-12.59-.3-27.82-4.05-42.89-10.57C19.84,73.56-.77,51.76,5.22,37.9c3.02-6.98,12.04-10.66,25.41-10.34,12.59.3,27.82,4.05,42.89,10.57,32.31,13.98,52.92,35.78,46.92,49.63-2.9,6.71-11.34,10.36-23.84,10.36ZM29.06,32.56c-10.23,0-17.21,2.64-19.24,7.34-4.2,9.71,12.6,29.32,44.31,43.04,14.48,6.27,29.05,9.88,41.01,10.16,11.02.26,18.57-2.41,20.69-7.32,4.2-9.71-12.6-29.32-44.31-43.04-14.48-6.27-29.05-9.88-41.01-10.16-.49-.01-.98-.02-1.46-.02Z"/>
    <path class="st0" d="M116.83,49.67c-7.25-12.66-19.56-23.23-34.66-29.77l-.66-.29,1.41,6.16c12.85,6.15,23.28,15.44,29.55,26.39,6.58,11.49,7.78,23.43,3.37,33.61l-1,2.3,4.6,1.99,1-2.3c5.05-11.67,3.76-25.2-3.62-38.1Z"/>
    <path class="st0" d="M42.67,99.87C15.58,86.85.91,60.48,9.82,39.89l1-2.3-4.6-1.99-1,2.3c-10.31,23.83,6.86,54.27,38.28,67.87l.57.24-1.4-6.14Z"/>
  </g>
  <g>
    <g>
      <path class="st0" d="M155.75,99.07c4.24,0,6.12,2.85,6.12,6.06s-1.81,6.24-6.12,6.24h-5.04v-12.3h5.04ZM153.41,108.84h2.34c2.67,0,3.41-1.97,3.41-3.74s-.84-3.55-3.41-3.55h-2.34v7.29Z"/>
      <path class="st0" d="M174.53,111.38h-9.37v-12.3h9.12v2.51h-6.43v2.37h6.06v2.41h-6.06v2.48h6.68v2.53Z"/>
      <path class="st0" d="M185.33,102.04c-.69-.72-1.88-1.04-2.85-1.04-1.21,0-2.2.51-2.2,1.35,0,1.12,1.07,1.34,2.65,1.48,2.43.21,4.73,1.14,4.73,3.99s-2.53,3.94-5.18,3.95c-2.13.02-4.34-.81-5.38-2.53l1.63-1.7c.95,1.21,2.51,1.74,3.76,1.74,1.46,0,2.46-.58,2.46-1.46.02-1.04-.81-1.51-2.48-1.65-2.6-.25-4.92-.9-4.89-3.8.02-2.44,2.34-3.74,4.87-3.74,1.9,0,3.32.42,4.59,1.9l-1.72,1.51Z"/>
      <path class="st0" d="M200.19,111.38h-9.37v-12.3h9.12v2.51h-6.43v2.37h6.06v2.41h-6.06v2.48h6.68v2.53Z"/>
      <path class="st0" d="M212.27,107.07l-.18-3.87v-4.13h2.76v12.3h-2.36l-6.12-7.87.11,4.04v3.83h-2.78v-12.3h2.36l6.2,8Z"/>
      <path class="st0" d="M225.46,111.43h-2.83l-5.13-12.36h3.08l3.46,9.09,3.46-9.09h3.08l-5.11,12.36Z"/>
      <path class="st0" d="M238.57,111.67c-3.94,0-6.64-2.44-6.64-6.45s2.71-6.45,6.64-6.45,6.64,2.44,6.64,6.45-2.71,6.45-6.64,6.45ZM238.57,101.23c-2.34,0-3.95,1.76-3.95,3.99s1.62,3.97,3.95,3.97,3.95-1.69,3.95-3.97-1.56-3.99-3.95-3.99Z"/>
      <path class="st0" d="M251.27,99.07v9.79h6.15v2.51h-8.89v-12.3h2.74Z"/>
      <path class="st0" d="M265.39,111.43h-2.83l-5.13-12.36h3.08l3.46,9.09,3.46-9.09h3.08l-5.11,12.36Z"/>
      <path class="st0" d="M273.14,111.38v-12.3h2.72v12.3h-2.72Z"/>
      <path class="st0" d="M290.51,102.83l-3.8,4.78h-.49l-3.67-4.82v8.59h-2.74v-12.3h3.15l3.59,4.73,3.6-4.73h3.11v12.3h-2.74v-8.56Z"/>
      <path class="st0" d="M306.6,111.38h-9.37v-12.3h9.12v2.51h-6.43v2.37h6.06v2.41h-6.06v2.48h6.68v2.53Z"/>
      <path class="st0" d="M318.67,107.07l-.18-3.87v-4.13h2.76v12.3h-2.36l-6.12-7.87.11,4.04v3.83h-2.78v-12.3h2.36l6.2,8Z"/>
      <path class="st0" d="M327.8,101.52h-3.74v-2.44h10.21v2.44h-3.74v9.86h-2.72v-9.86Z"/>
      <path class="st0" d="M342.92,111.67c-3.94,0-6.64-2.44-6.64-6.45s2.71-6.45,6.64-6.45,6.64,2.44,6.64,6.45-2.71,6.45-6.64,6.45ZM342.92,101.23c-2.34,0-3.95,1.76-3.95,3.99s1.62,3.97,3.95,3.97,3.95-1.69,3.95-3.97-1.56-3.99-3.95-3.99Z"/>
    </g>
    <g>
      <path class="st0" d="M369.92,109.35h-6.31l-.9,2.11h-2.95l5.52-12.3h2.99l5.52,12.3h-2.97l-.9-2.11ZM366.78,101.94l-2.13,4.99h4.24l-2.11-4.99Z"/>
      <path class="st0" d="M384.54,102.39c-.76-.72-1.9-1.09-2.88-1.09-2.34,0-3.87,1.34-3.87,4.02,0,1.76.97,3.95,3.87,3.95.86,0,1.67-.14,2.62-.86v-1.97h-2.94v-2.28h5.31v5.36c-1.05,1.51-2.74,2.28-5.01,2.28-4.75,0-6.54-3.29-6.54-6.49,0-3.46,2.04-6.54,6.56-6.54,1.67,0,3.18.46,4.59,1.9l-1.7,1.7Z"/>
      <path class="st0" d="M401.15,111.46h-3.04l-3.15-4.04h-1.99v4.04h-2.74v-12.3h5.83c2.97,0,4.55,1.99,4.55,4.15-.02,1.6-.49,3.02-2.85,3.87l3.37,4.08v.21ZM392.98,101.51v3.59h3.13c1.27,0,1.81-.95,1.81-1.72-.02-.84-.56-1.86-1.85-1.86h-3.09Z"/>
      <path class="st0" d="M410,111.76c-3.94,0-6.64-2.44-6.64-6.45s2.71-6.45,6.64-6.45,6.64,2.44,6.64,6.45-2.71,6.45-6.64,6.45ZM410,101.32c-2.34,0-3.95,1.76-3.95,3.99s1.62,3.97,3.95,3.97,3.95-1.69,3.95-3.97-1.56-3.99-3.95-3.99Z"/>
      <path class="st0" d="M422.7,107.98v3.48h-2.74v-12.3h5.8c3.15,0,4.71,2.04,4.71,4.41s-1.58,4.38-4.71,4.41h-3.06ZM422.7,105.47h3.06c1.32,0,1.97-.86,1.97-1.85s-.67-1.86-1.97-1.86h-3.06v3.71Z"/>
      <path class="st0" d="M442.77,111.46h-9.37v-12.3h9.12v2.51h-6.43v2.37h6.06v2.41h-6.06v2.48h6.68v2.53Z"/>
      <path class="st0" d="M456.72,109.97c-1.27,1.25-2.9,1.81-4.73,1.81-4.69,0-6.56-3.02-6.57-6.38-.02-3.18,2.06-6.52,6.57-6.52,1.69,0,3.25.65,4.52,1.9l-1.72,1.7c-.74-.72-1.81-1.02-2.79-1.02-2.79,0-3.88,2.16-3.87,3.95s.98,3.83,3.87,3.83c.98,0,2.28-.44,3.02-1.18l1.7,1.9Z"/>
      <path class="st0" d="M470.51,99.18v6.87c0,3.66-2.04,5.61-5.27,5.71-3.22.11-5.94-1.74-5.94-5.71v-6.87h2.72v6.87c0,2.2,1.23,3.34,3.23,3.25,1.86-.12,2.53-1.41,2.53-3.25v-6.87h2.72Z"/>
      <path class="st0" d="M482.4,109.35h-6.31l-.9,2.11h-2.95l5.52-12.3h2.99l5.52,12.3h-2.97l-.9-2.11ZM479.26,101.94l-2.13,4.99h4.24l-2.11-4.99ZM482.19,95.57h-2.95l-1.3,2.46v.12h2.21l2.04-2.48v-.11Z"/>
      <path class="st0" d="M499.81,111.46h-3.04l-3.15-4.04h-1.99v4.04h-2.74v-12.3h5.83c2.97,0,4.55,1.99,4.55,4.15-.02,1.6-.49,3.02-2.85,3.87l3.37,4.08v.21ZM491.64,101.51v3.59h3.13c1.27,0,1.81-.95,1.81-1.72-.02-.84-.56-1.86-1.85-1.86h-3.09Z"/>
      <path class="st0" d="M502.81,111.46v-12.3h2.72v12.3h-2.72Z"/>
      <path class="st0" d="M515.48,111.76c-3.94,0-6.64-2.44-6.64-6.45s2.71-6.45,6.64-6.45,6.64,2.44,6.64,6.45-2.71,6.45-6.64,6.45ZM515.48,101.32c-2.34,0-3.95,1.76-3.95,3.99s1.62,3.97,3.95,3.97,3.95-1.69,3.95-3.97-1.56-3.99-3.95-3.99Z"/>
    </g>
  </g>
  <g>
    <path class="st0" d="M155.28,21.39h57.94v11.28h-23.21v46.25h-12.01v-46.25h-22.72v-11.28Z"/>
    <path class="st0" d="M283.01,21.39v11.04h-50.6v12.81h50.6v10.23h-50.6v12.41h50.6v11.04h-62.61V21.39h62.61Z"/>
    <path class="st0" d="M361.51,42.91c0,3.17-.4,5.9-1.21,8.18-.81,2.28-1.88,4.22-3.22,5.8-1.34,1.59-2.9,2.86-4.67,3.83-1.77.97-3.63,1.72-5.56,2.26l17.57,15.95h-17.65l-15.15-14.5h-26.75v14.5h-12.01V21.39h41.18c1.72,0,3.59.07,5.6.2,2.01.13,4.04.44,6.08.93,2.04.48,4.02,1.2,5.92,2.13,1.91.94,3.59,2.22,5.04,3.83,1.45,1.61,2.62,3.59,3.51,5.92s1.33,5.17,1.33,8.5ZM304.86,53.22h33.68c2.04,0,3.72-.32,5.04-.97,1.32-.64,2.35-1.48,3.1-2.5.75-1.02,1.28-2.13,1.57-3.34.29-1.21.44-2.38.44-3.51s-.15-2.3-.44-3.51c-.3-1.21-.82-2.31-1.57-3.3-.75-.99-1.79-1.81-3.1-2.46-1.32-.64-3-.97-5.04-.97h-33.68v20.55Z"/>
    <path class="st0" d="M440.2,42.91c0,3.17-.4,5.9-1.21,8.18-.81,2.28-1.88,4.22-3.22,5.8-1.34,1.59-2.9,2.86-4.67,3.83-1.77.97-3.63,1.72-5.56,2.26l17.57,15.95h-17.65l-15.15-14.5h-26.75v14.5h-12.01V21.39h41.18c1.72,0,3.59.07,5.6.2,2.01.13,4.04.44,6.08.93s4.02,1.2,5.92,2.13c1.91.94,3.59,2.22,5.04,3.83,1.45,1.61,2.62,3.59,3.51,5.92.89,2.34,1.33,5.17,1.33,8.5ZM383.55,53.22h33.68c2.04,0,3.72-.32,5.04-.97,1.32-.64,2.35-1.48,3.1-2.5.75-1.02,1.28-2.13,1.57-3.34.29-1.21.44-2.38.44-3.51s-.15-2.3-.44-3.51c-.3-1.21-.82-2.31-1.57-3.3-.75-.99-1.79-1.81-3.1-2.46-1.32-.64-3-.97-5.04-.97h-33.68v20.55Z"/>
    <path class="st0" d="M497.77,21.39l28.93,57.54h-13.86l-6.29-12.49h-36.18l-6.29,12.49h-13.86l29.01-57.54h18.53ZM501.32,56.04l-12.81-25.46-12.81,25.46h25.62Z"/>
  </g>
</svg>