<?xml version="1.0" encoding="UTF-8"?>
<svg id="Camada_2" data-name="Camada 2" xmlns="http://www.w3.org/2000/svg" viewBox="0 0 24.42 37.9">
  <defs>
    <style>
      .cls-1 {
        fill: #272525;
      }
    </style>
  </defs>
  <g id="Layer_1" data-name="Layer 1">
    <g>
      <path class="cls-1" d="M24.42,35.64c0-.16.1-3.92-2.27-6.09-.23-.21-.59-.23-.84-.04-.1.08-2.6,1.93-4.95,0-.25-.2-.6-.19-.84.01-.03.03-.34.3-.72.81-.36-.56-.8-1.09-1.32-1.57-.23-.21-.59-.23-.84-.04-.16.12-3.89,2.89-7.43,0-.25-.2-.6-.19-.84.01-.13.12-3.31,2.94-3.39,8.49,0,.17.07.34.19.47.12.12.29.19.46.19h14.35c.35,0,.64-.28.65-.63,0-.06.01-.43-.03-1h7.15c.35,0,.64-.28.65-.63ZM2.31,36.6c.23-3.48,1.82-5.66,2.55-6.49,3.39,2.36,6.85.72,8.09-.03,1.92,2.07,2.29,5.19,2.36,6.51H2.31ZM16.46,34.96c-.15-.98-.44-2.17-.97-3.34.19-.31.37-.56.53-.74,2.1,1.36,4.33.72,5.59-.02,1.12,1.3,1.4,3.14,1.47,4.09h-6.62Z"/>
      <path class="cls-1" d="M17.66,12.58h-5.09v1.6c0,.8.65,1.45,1.45,1.45h4.52l1.29,1.48c.1.11.23.17.37.17.06,0,.13-.01.19-.04.19-.08.32-.28.3-.49l-.09-1.12h2.32c.8,0,1.45-.65,1.45-1.45v-5.73c0-.8-.65-1.45-1.45-1.45h-3.17v3.48c0,1.16-.94,2.1-2.1,2.1ZM19.88,10.51v-2.54h3.05c.26,0,.47.21.47.47v5.73c0,.26-.21.47-.47.47h-2.85c-.14,0-.27.06-.36.16s-.14.23-.13.37v.17s-.45-.53-.45-.53c-.09-.11-.23-.17-.37-.17h-4.75c-.26,0-.47-.21-.47-.47v-1.53h4.18c1.18,0,2.14-.96,2.14-2.14Z"/>
      <path class="cls-1" d="M0,10.48c0,1.16.94,2.1,2.1,2.1h5.64l-.16,2.02c-.02.24.12.47.34.56.07.03.14.04.22.04.16,0,.32-.07.43-.19l2.12-2.44h6.97c1.16,0,2.1-.94,2.1-2.1V2.1c0-1.16-.94-2.1-2.1-2.1H2.1C.94,0,0,.94,0,2.1v8.38ZM1.13,2.1c0-.54.44-.97.97-.97h15.56c.54,0,.97.44.97.97v8.38c0,.54-.44.97-.97.97h-7.22c-.16,0-.32.07-.43.19l-1.17,1.34.07-.93c.01-.16-.04-.31-.15-.43-.11-.12-.26-.18-.41-.18H2.1c-.54,0-.97-.44-.97-.97V2.1Z"/>
      <path class="cls-1" d="M18.75,29.5h0c1.2,0,2.32-.47,3.17-1.32.85-.85,1.32-1.98,1.31-3.17,0-2.47-2.01-4.49-4.49-4.49-1.2,0-2.32.47-3.17,1.32-.26.26-.47.54-.66.84.02-.2.03-.41.03-.61,0-3.38-2.76-6.14-6.14-6.14-1.64,0-3.18.64-4.34,1.8-1.16,1.16-1.8,2.7-1.8,4.34,0,3.38,2.76,6.14,6.14,6.14h0c1.64,0,3.18-.64,4.34-1.8.46-.46.83-.98,1.12-1.54,0,.05,0,.09,0,.14,0,2.47,2.01,4.49,4.49,4.49ZM16.5,22.77c.6-.6,1.4-.93,2.25-.93,1.75,0,3.18,1.43,3.18,3.18,0,.85-.33,1.65-.93,2.25-.6.6-1.4.93-2.25.93h0c-1.75,0-3.18-1.43-3.18-3.18,0-.85.33-1.65.93-2.25ZM12.23,25.5c-.91.91-2.13,1.42-3.42,1.42h0c-2.66,0-4.83-2.17-4.84-4.83,0-1.29.5-2.5,1.42-3.42.91-.92,2.13-1.42,3.42-1.42,2.67,0,4.83,2.17,4.84,4.83,0,1.29-.5,2.5-1.42,3.42Z"/>
    </g>
  </g>
</svg>