<?xml version="1.0" encoding="UTF-8"?>
<svg id="Camada_2" xmlns="http://www.w3.org/2000/svg" version="1.1" viewBox="0 0 53.3 82.7">
  <!-- Generator: Adobe Illustrator 29.8.1, SVG Export Plug-In . SVG Version: 2.1.1 Build 2)  -->
  <g id="Layer_1">
    <g>
      <path d="M53.3,77.8c0-.3.2-8.6-5-13.3-.5-.5-1.3-.5-1.8,0-.2.2-5.7,4.2-10.8,0-.5-.4-1.3-.4-1.8,0,0,0-.7.7-1.6,1.8-.8-1.2-1.7-2.4-2.9-3.4-.5-.5-1.3-.5-1.8,0-.3.3-8.5,6.3-16.2,0-.5-.4-1.3-.4-1.8,0-.3.3-7.2,6.4-7.4,18.5,0,.4.2.7.4,1,.3.3.6.4,1,.4h31.3c.8,0,1.4-.6,1.4-1.4,0-.1,0-.9,0-2.2h15.6c.8,0,1.4-.6,1.4-1.4h0ZM5,79.9c.5-7.6,4-12.4,5.6-14.2,7.4,5.2,15,1.6,17.7,0,4.2,4.5,5,11.3,5.2,14.2H5ZM35.9,76.3c-.3-2.1-1-4.7-2.1-7.3.4-.7.8-1.2,1.2-1.6,4.6,3,9.5,1.6,12.2,0,2.4,2.8,3.1,6.9,3.2,8.9h-14.4Z"/>
      <path d="M38.5,27.5h-11.1v3.5c0,1.7,1.4,3.2,3.2,3.2h9.9l2.8,3.2c.2.2.5.4.8.4s.3,0,.4,0c.4-.2.7-.6.7-1.1l-.2-2.4h5.1c1.7,0,3.2-1.4,3.2-3.2v-12.5c0-1.7-1.4-3.2-3.2-3.2h-6.9v7.6c0,2.5-2.1,4.6-4.6,4.6h0ZM43.4,22.9v-5.5h6.7c.6,0,1,.5,1,1v12.5c0,.6-.5,1-1,1h-6.2c-.3,0-.6.1-.8.3s-.3.5-.3.8v.4l-1-1.2c-.2-.2-.5-.4-.8-.4h-10.4c-.6,0-1-.5-1-1v-3.3h9.1c2.6,0,4.7-2.1,4.7-4.7h0Z"/>
      <path d="M0,22.9c0,2.5,2.1,4.6,4.6,4.6h12.3l-.3,4.4c0,.5.3,1,.7,1.2.2,0,.3,0,.5,0,.3,0,.7-.2.9-.4l4.6-5.3h15.2c2.5,0,4.6-2.1,4.6-4.6V4.6C43.1,2.1,41.1,0,38.5,0H4.6C2,0,0,2.1,0,4.6v18.3ZM2.4,4.6c0-1.2,1-2.1,2.1-2.1h34c1.2,0,2.1,1,2.1,2.1v18.3c0,1.2-1,2.1-2.1,2.1h-15.8c-.3,0-.7.2-.9.4l-2.6,2.9.2-2c0-.3,0-.7-.3-.9s-.6-.4-.9-.4H4.6c-1.2,0-2.1-1-2.1-2.1,0,0,0-18.3,0-18.3Z"/>
      <path d="M40.9,64.4h0c2.6,0,5.1-1,6.9-2.9s2.9-4.3,2.9-6.9c0-5.4-4.4-9.8-9.8-9.8s-5.1,1-6.9,2.9-1,1.2-1.4,1.8c0-.4,0-.9,0-1.3,0-7.4-6-13.4-13.4-13.4s-6.9,1.4-9.5,3.9-3.9,5.9-3.9,9.5c0,7.4,6,13.4,13.4,13.4h0c3.6,0,6.9-1.4,9.5-3.9,1-1,1.8-2.1,2.4-3.4v.3c0,5.4,4.4,9.8,9.8,9.8ZM36,49.7c1.3-1.3,3.1-2,4.9-2,3.8,0,6.9,3.1,6.9,6.9s-.7,3.6-2,4.9-3.1,2-4.9,2h0c-3.8,0-6.9-3.1-6.9-6.9s.7-3.6,2-4.9ZM26.7,55.7c-2,2-4.6,3.1-7.5,3.1h0c-5.8,0-10.5-4.7-10.6-10.5,0-2.8,1.1-5.5,3.1-7.5,2-2,4.6-3.1,7.5-3.1,5.8,0,10.5,4.7,10.6,10.5,0,2.8-1.1,5.5-3.1,7.5Z"/>
    </g>
  </g>
</svg>